<svg width="46" height="46" viewBox="0 0 46 46" fill="none" xmlns="http://www.w3.org/2000/svg">
<path d="M2.1875 6.64453H22.7835C25.9854 6.64453 28.495 9.24066 28.495 12.356V34.5962C28.495 37.7981 25.8989 40.3077 22.7835 40.3077H2.1875V6.64453Z" fill="#EDF7F5"/>
<path d="M4.69727 40.3945V44.1157L6.16841 42.9041L7.63955 44.1157V40.3945H4.69727Z" fill="#EE3E54"/>
<path d="M2.1875 6.64453H5.64901V40.3943H2.1875V6.64453Z" fill="#6D584A"/>
<path d="M2.1875 14.6064H28.495V25.5102H2.1875V14.6064Z" fill="#FEFDEF"/>
<path d="M24.0814 41.0003H23.1294C22.7833 41.0003 22.5237 40.7407 22.5237 40.3946C22.5237 40.0484 22.7833 39.7888 23.1294 39.7888H24.0814C26.2448 39.7888 27.9756 38.0581 27.9756 35.8946V11.1448C27.9756 8.98135 26.2448 7.25059 24.0814 7.25059H23.1294C22.7833 7.25059 22.5237 6.99098 22.5237 6.64483C22.5237 6.29868 22.7833 6.03906 23.1294 6.03906H24.0814C26.8506 6.03906 29.1871 8.28905 29.1871 11.1448V35.9811C29.1006 38.7504 26.8506 41.0003 24.0814 41.0003Z" fill="#472B29"/>
<path d="M20.6201 41.0003H2.18755C1.8414 41.0003 1.58179 40.7407 1.58179 40.3946V6.64483C1.58179 6.29868 1.8414 6.03906 2.18755 6.03906H23.9951C24.3412 6.03906 24.6008 6.29868 24.6008 6.64483C24.6008 6.99098 24.3412 7.25059 23.9951 7.25059H2.79332V39.7888H20.5336C20.8797 39.7888 21.1393 40.0484 21.1393 40.3946C21.1393 40.7407 20.8797 41.0003 20.6201 41.0003Z" fill="#472B29"/>
<path d="M5.47604 35.9805C5.30296 35.9805 5.12988 35.8074 5.12988 35.6343V25.2498C5.12988 25.0767 5.30296 24.9036 5.47604 24.9036C5.64911 24.9036 5.82218 25.0767 5.82218 25.2498V35.6343C5.73565 35.8939 5.64911 35.9805 5.47604 35.9805ZM5.47604 14.6922C5.30296 14.6922 5.12988 14.5191 5.12988 14.346V6.90377C5.12988 6.73069 5.30296 6.55762 5.47604 6.55762C5.64911 6.55762 5.82218 6.73069 5.82218 6.90377V14.346C5.73565 14.5191 5.64911 14.6922 5.47604 14.6922Z" fill="#472B29"/>
<path d="M24.0816 25.856H2.18755C1.8414 25.856 1.58179 25.5964 1.58179 25.2503V14.3465C1.58179 14.0003 1.8414 13.7407 2.18755 13.7407H23.9951C24.3412 13.7407 24.6008 14.0003 24.6008 14.3465C24.6008 14.6926 24.3412 14.9523 23.9951 14.9523H2.79332V24.6445H23.9951C24.3412 24.6445 24.6008 24.9041 24.6008 25.2503C24.6008 25.5964 24.3412 25.856 24.0816 25.856Z" fill="#472B29"/>
<path d="M28.4951 25.856H23.0432C22.6971 25.856 22.4374 25.5964 22.4374 25.2503C22.4374 24.9041 22.6971 24.6445 23.0432 24.6445H27.8893V14.9523H23.0432C22.6971 14.9523 22.4374 14.6926 22.4374 14.3465C22.4374 14.0003 22.6971 13.7407 23.0432 13.7407H28.4951C28.8412 13.7407 29.1008 14.0003 29.1008 14.3465V25.2503C29.1008 25.5964 28.8412 25.856 28.4951 25.856ZM7.4664 44.8078C7.37986 44.8078 7.29332 44.8078 7.20678 44.7213L5.90872 43.6828L4.69718 44.7213C4.61065 44.8078 4.35103 44.8943 4.2645 44.8078C4.09142 44.7213 4.00488 44.5482 4.00488 44.3751V40.654C4.00488 40.3944 4.17796 40.2213 4.43757 40.2213H7.37986C7.63947 40.2213 7.81255 40.3944 7.81255 40.654V44.3751C7.81255 44.5482 7.72601 44.7213 7.55293 44.8078H7.4664ZM5.90872 42.7309C5.99525 42.7309 6.08179 42.7309 6.16833 42.8174L6.94717 43.4232V41.0867H4.87026V43.4232L5.6491 42.8174C5.73564 42.7309 5.82218 42.7309 5.90872 42.7309ZM16.899 19.6253H4.43757C4.2645 19.6253 4.09142 19.4522 4.09142 19.2791C4.09142 19.1061 4.2645 18.933 4.43757 18.933H16.8125C16.9856 18.933 17.1586 19.1061 17.1586 19.2791C17.1586 19.4522 17.0721 19.6253 16.899 19.6253ZM16.899 17.6349H14.3029C14.1298 17.6349 13.9567 17.4618 13.9567 17.2888C13.9567 17.1157 14.1298 16.9426 14.3029 16.9426H16.899C17.0721 16.9426 17.2452 17.1157 17.2452 17.2888C17.2452 17.4618 17.0721 17.6349 16.899 17.6349ZM13.0914 17.6349H4.43757C4.2645 17.6349 4.09142 17.4618 4.09142 17.2888C4.09142 17.1157 4.2645 16.9426 4.43757 16.9426H13.0914C13.2644 16.9426 13.4375 17.1157 13.4375 17.2888C13.4375 17.4618 13.2644 17.6349 13.0914 17.6349ZM5.47603 38.4905C5.30295 38.4905 5.12987 38.3175 5.12987 38.1444V36.6732C5.12987 36.5002 5.30295 36.3271 5.47603 36.3271C5.6491 36.3271 5.82218 36.5002 5.82218 36.6732V38.1444C5.73564 38.3175 5.6491 38.4905 5.47603 38.4905ZM5.47603 39.9617C5.30295 39.9617 5.12987 39.7886 5.12987 39.6155V39.0963C5.12987 38.9232 5.30295 38.7502 5.47603 38.7502C5.6491 38.7502 5.82218 38.9232 5.82218 39.0963V39.6155C5.73564 39.8751 5.6491 39.9617 5.47603 39.9617Z" fill="#472B29"/>
<path d="M43.5525 33.7313C43.466 32.3467 42.5141 31.2217 41.216 30.8755L40.9564 30.789L40.5237 30.6159C39.6583 30.2698 34.3795 28.2794 34.3795 28.2794C34.0333 28.1928 33.6872 27.8467 33.5141 27.5005C33.341 26.8082 33.2545 26.1159 33.341 25.4236C32.1295 25.8563 31.0045 26.2025 29.793 26.4621C28.4084 26.6352 25.5526 24.8179 25.5526 24.8179C25.5526 24.8179 25.4661 26.9813 25.3796 27.414C25.293 27.8467 24.9469 28.1063 24.5142 28.1928L19.495 30.0101C18.9758 30.1832 18.37 30.3563 17.9373 30.7024C16.8989 31.3947 16.0335 32.4332 15.6873 33.6447C15.6873 33.6447 15.3412 35.9812 15.3412 36.0678C15.3412 36.4139 15.2546 36.7601 15.2546 37.1928C20.7931 40.9139 25.2065 41.9524 32.8218 41.6062C36.2833 41.4331 41.3891 39.7024 44.0717 38.4043C43.8121 35.462 43.5525 33.7313 43.5525 33.7313Z" fill="#A3754F"/>
<path d="M41.2161 30.875L40.9565 30.7885L40.5238 30.6154C40.0046 30.3558 37.7546 29.577 36.1104 28.9712H36.0238C34.2065 29.9231 31.6969 31.3077 29.3604 31.3077C27.0239 31.3077 24.6874 30.0962 22.697 28.9712H22.5239L19.4086 30.0962C18.8893 30.2693 18.2836 30.4423 17.8509 30.7885C16.8124 31.4808 15.9471 32.5192 15.6009 33.7308C15.6009 33.7308 15.2547 36.0673 15.2547 36.1538C15.2547 36.5 15.1682 40.048 15.1682 40.3942C20.7066 44.1153 25.1201 45.1538 32.7354 44.8076C36.1969 44.6345 41.3026 42.9903 43.9853 41.6057C43.8122 38.5769 43.5526 33.6442 43.5526 33.6442C43.4661 32.3462 42.5142 31.2212 41.2161 30.875Z" fill="#78A0CF"/>
<path d="M20.0145 43.5097C19.8414 43.5097 19.7549 43.4232 19.7549 43.2501V40.3944C19.7549 40.2213 19.8414 40.1348 20.0145 40.1348C20.1876 40.1348 20.2741 40.2213 20.2741 40.3944V43.2501C20.2741 43.3367 20.101 43.5097 20.0145 43.5097ZM38.7067 43.9424C38.5336 43.9424 38.4471 43.8559 38.4471 43.6828V40.3944C38.4471 40.2213 38.5336 40.1348 38.7067 40.1348C38.8797 40.1348 38.9663 40.2213 38.9663 40.3944V43.6828C38.9663 43.8559 38.7932 43.9424 38.7067 43.9424Z" fill="#5A82B1"/>
<path d="M38.1007 14.9527H37.8411C37.1488 14.9527 36.9757 15.2123 36.9757 14.7796C37.0623 14.0008 36.8892 11.0585 36.8892 10.8854C36.8892 7.77007 33.6007 5.26048 29.4469 5.0874H29.2738C25.12 5.26048 21.8316 7.77007 21.8316 10.8854C21.8316 11.0585 21.7451 14.0873 21.7451 14.7796C21.7451 15.2123 21.572 14.9527 20.8797 14.9527H20.6201C19.9278 14.9527 19.322 15.3854 19.1489 16.0777C19.2355 16.1642 19.5816 18.6738 20.1008 19.7123C20.447 20.3181 20.8797 20.3181 21.3989 20.7507C21.6585 20.9238 21.7451 21.1834 21.8316 21.443C22.1777 22.568 22.8701 23.52 23.7354 24.2988C24.1681 24.7315 26.9373 27.5872 29.3604 27.5007C31.7834 27.4142 34.5527 24.7315 34.9853 24.2988C35.8507 23.52 36.543 22.568 36.8892 21.443C36.8892 21.1834 37.0623 20.9238 37.3219 20.7507C37.8411 20.4046 38.2738 20.3181 38.6199 19.7123C39.1392 18.6738 39.4853 16.1642 39.6584 16.0777C39.3988 15.3854 38.793 14.9527 38.1007 14.9527Z" fill="#A3754F"/>
<path d="M29.447 20.5772C29.9662 20.5772 30.3989 20.4042 30.7451 19.9715V19.8849H30.6585C30.3124 20.1445 29.8797 20.3176 29.5336 20.3176C29.1009 20.3176 28.6682 20.1445 28.4086 19.8849C28.4086 19.8849 28.4086 19.8849 28.322 19.8849H28.2355V19.9715C28.5816 20.3176 29.0143 20.5772 29.447 20.5772ZM27.9759 13.3081L28.2355 12.7023C26.9374 12.3561 25.5528 12.4427 24.1682 12.7888L24.6009 13.3946C25.6394 13.0484 26.8509 13.0484 27.9759 13.3081ZM34.4662 13.3081L34.8124 12.7023C33.5143 12.3561 32.0432 12.4427 30.7451 12.7888L31.1778 13.3946C32.2162 13.0484 33.3412 13.0484 34.4662 13.3081ZM26.072 14.0869C25.7259 14.0869 25.4663 14.3465 25.2932 14.6061H25.3797C25.6394 14.6061 25.899 14.8657 25.899 15.1254C25.899 15.385 25.6394 15.6446 25.3797 15.6446C25.2932 15.6446 25.2067 15.6446 25.1201 15.558C25.2067 15.9907 25.5528 16.3369 25.9855 16.3369C26.5913 16.1638 27.024 15.558 26.8509 14.9523C26.8509 14.6061 26.5047 14.26 26.072 14.0869ZM32.822 14.0869C32.5624 14.0869 32.3028 14.26 32.1297 14.5196C32.2162 14.5196 32.2162 14.5196 32.3028 14.5196C32.5624 14.5196 32.822 14.7792 32.822 15.0388C32.822 15.2984 32.5624 15.558 32.3028 15.558C32.1297 15.558 32.0432 15.4715 31.9566 15.2984C32.1297 15.8177 32.5624 16.0773 33.0816 15.9042C33.6008 15.7311 33.8605 15.2984 33.6874 14.7792C33.6008 14.433 33.2547 14.1734 32.822 14.0869ZM33.2547 21.8753V21.7888H33.1681C32.1297 22.4811 30.8316 22.8272 29.5336 22.8272C28.2355 22.9138 26.9374 22.5676 25.899 21.7888C25.899 21.7888 25.899 21.7888 25.8124 21.7888C25.8124 21.7888 25.8124 21.7888 25.7259 21.7888V21.8753C27.9759 23.433 30.9182 23.433 33.2547 21.8753Z" fill="#512C2B"/>
<path d="M30.226 45.4135C23.9087 45.4135 19.8415 44.1154 14.9953 40.827C14.9088 40.7405 14.8223 40.6539 14.8223 40.4808C14.8223 40.3943 14.8223 40.1347 14.8223 39.702C14.8223 38.1443 14.9088 34.9424 15.255 33.7309C15.5146 32.3463 16.4665 31.2213 17.678 30.529C18.1972 30.2694 18.7165 30.0098 19.3222 29.8367L24.3414 28.1059C24.6876 28.0194 24.9472 27.8463 25.0337 27.5002C25.0337 27.2406 25.1203 26.6348 25.1203 26.029C24.601 25.6829 24.0818 25.2502 23.6491 24.904C22.6972 24.1252 22.0049 23.0002 21.5722 21.8752C21.5722 21.6156 21.3991 21.4425 21.3126 21.2694C21.1395 21.1829 21.053 21.0964 20.8799 21.0098C20.5338 20.8368 20.1876 20.5771 19.928 20.1445C19.3222 18.9329 18.9761 17.6349 18.8895 16.3368V16.2503C19.1492 15.4714 19.8415 14.8656 20.7068 14.8656H20.9664C21.1395 14.8656 21.3126 14.8656 21.4857 14.8656C21.4857 14.0003 21.4857 12.183 21.5722 11.4041C21.5722 11.2311 21.5722 11.058 21.5722 11.058C21.5722 7.68301 24.9472 4.9138 29.3606 4.74072H29.5337C33.9471 4.9138 37.3221 7.68301 37.3221 11.058C37.3221 11.058 37.3221 11.2311 37.3221 11.4041C37.3221 12.2695 37.4086 14.1733 37.4086 14.9522C37.5817 14.9522 37.6682 14.9522 37.9279 14.9522H38.1875C39.0529 14.9522 39.8317 15.4714 40.0913 16.2503C40.0913 16.3368 40.0913 16.3368 40.0913 16.4233C40.0048 17.7214 39.6586 19.0195 39.0529 20.231C38.7932 20.7502 38.4471 20.9233 38.1009 21.0964C37.9279 21.1829 37.8413 21.2694 37.6682 21.356C37.4952 21.4425 37.4086 21.6156 37.4086 21.8752C37.0625 23.1733 36.3702 24.2117 35.4183 25.0771C34.899 25.5098 34.3798 25.9425 33.774 26.2886C33.774 26.7213 33.8606 27.154 33.9471 27.5867C34.0337 27.8463 34.2933 28.0194 34.5529 28.1059C34.8125 28.1925 39.9182 30.0963 40.7836 30.4425L41.3894 30.7021C42.8605 31.0482 43.899 32.3463 43.9855 33.904C43.9855 33.904 44.2451 38.8366 44.4182 41.8654C44.4182 42.0385 44.3317 42.1251 44.2451 42.2116C41.3894 43.6827 36.2836 45.327 32.8221 45.5C31.8702 45.4135 31.0048 45.4135 30.226 45.4135ZM15.5146 40.3943C20.7934 43.9423 25.1203 44.9808 32.7356 44.6347C35.9375 44.4616 40.8702 42.9904 43.6394 41.5193C43.4663 38.4905 43.2932 33.904 43.2932 33.8174C43.2067 32.6059 42.3413 31.5674 41.2163 31.3078L40.524 31.0482C39.6586 30.7021 34.4663 28.7117 34.3798 28.7117C33.9471 28.5386 33.5144 28.1925 33.3414 27.7598C32.9952 27.154 32.9952 26.5483 32.9952 25.9425C32.9952 25.8559 33.0817 25.7694 33.1683 25.6829C33.774 25.2502 34.2933 24.8175 34.899 24.3848C35.7644 23.606 36.3702 22.6541 36.7163 21.6156C36.7163 21.2694 36.8894 20.9233 37.2356 20.6637C37.4086 20.4906 37.5817 20.4041 37.7548 20.3175C38.1009 20.1445 38.274 20.0579 38.4471 19.7118C38.9663 18.5868 39.3125 17.4618 39.399 16.1637C39.2259 15.6445 38.7067 15.3849 38.1875 15.3849H37.9279C37.7548 15.3849 37.5817 15.3849 37.4952 15.3849C37.3221 15.3849 37.0625 15.4714 36.8894 15.2983C36.7163 15.1253 36.7163 14.9522 36.7163 14.7791C36.7163 14.1733 36.7163 12.0099 36.7163 11.1445C36.7163 10.8849 36.7163 10.7984 36.7163 10.7118C36.7163 7.68301 33.601 5.25995 29.6202 5.08687H29.4472C25.4664 5.25995 22.3511 7.68301 22.3511 10.7118C22.3511 10.7118 22.3511 10.8849 22.3511 11.1445C22.3511 11.9234 22.2645 14.1733 22.3511 14.6926C22.3511 14.8656 22.3511 15.0387 22.178 15.2118C22.0049 15.3849 21.8318 15.2983 21.6588 15.2983C21.5722 15.2983 21.3991 15.2118 21.1395 15.2983H20.8799C20.3607 15.2983 19.928 15.6445 19.7549 16.1637C19.8415 17.3752 20.1876 18.5868 20.7068 19.7118C20.8799 19.9714 21.053 20.1445 21.3991 20.3175C21.5722 20.4041 21.7453 20.4906 21.9184 20.6637C22.2645 20.9233 22.4376 21.2694 22.4376 21.6156C22.7837 22.6541 23.3895 23.606 24.2549 24.2983C24.7741 24.731 25.2933 25.1636 25.8126 25.5098C25.8991 25.5963 25.9856 25.6829 25.9856 25.7694C25.9856 26.4617 25.8991 27.2406 25.8991 27.5867C25.726 28.1925 25.2933 28.5386 24.7741 28.7117L19.7549 30.529C19.2357 30.7021 18.7165 30.8751 18.1972 31.1348C17.0723 31.654 16.3799 32.6924 16.1203 33.904C15.7742 35.1155 15.7742 38.4039 15.6876 39.7885C15.5146 40.0482 15.5146 40.2212 15.5146 40.3943Z" fill="#472B29"/>
<path d="M38.1874 18.327L37.6682 18.2404L37.8413 17.0289L37.2355 17.2885L36.9759 16.8558L38.0144 16.4231C38.1009 16.4231 38.1874 16.4231 38.274 16.4231C38.3605 16.5097 38.3605 16.5962 38.3605 16.6828L38.1874 18.327ZM20.8799 18.0674L20.7068 16.4231C20.7068 16.3366 20.7068 16.2501 20.7933 16.1635C20.8799 16.077 20.9664 16.077 21.0529 16.1635L22.0914 16.5962L21.9183 17.1155L21.3126 16.8558L21.4856 18.0674H20.8799Z" fill="#D3A47D"/>
<path d="M21.9182 21.2687C21.8317 21.2687 21.7451 21.1821 21.7451 21.0956L21.8317 14.9514C21.8317 14.8649 21.9182 14.7783 22.0047 14.7783C22.0913 14.7783 22.1778 14.8649 22.1778 14.9514L22.0913 21.0956C22.0913 21.1821 22.0047 21.2687 21.9182 21.2687ZM37.0623 21.2687C36.9758 21.2687 36.8892 21.1821 36.8892 21.0956L36.8027 14.9514C36.8027 14.8649 36.8892 14.7783 36.9758 14.7783C37.0623 14.7783 37.1489 14.8649 37.1489 14.9514L37.2354 21.0956C37.2354 21.1821 37.1488 21.2687 37.0623 21.2687ZM34.0335 25.0763C32.7354 25.9417 30.3989 26.4609 29.8797 25.6821C29.5335 25.1629 29.0143 25.1629 28.7547 25.6821C28.2355 26.5475 25.7259 25.6821 24.3413 24.7302C23.9951 24.7302 24.3413 24.8167 24.0816 25.0763C25.7259 26.4609 27.4566 27.5859 29.3604 28.5378C31.0912 27.6725 32.7354 26.634 34.2066 25.4225C33.947 25.0763 34.4662 25.0763 34.0335 25.0763Z" fill="#472B29"/>
<path d="M35.5914 5.60573C35.5914 5.17304 35.4183 4.74035 35.1587 4.3942C34.0337 2.66345 32.3895 1.27884 30.4856 0.5C30.3991 1.53845 29.7068 2.40383 28.7549 2.66345C24.0818 3.87497 21.3992 5.86534 21.3992 11.4903C21.4857 12.7884 21.7453 14.0864 22.0915 15.298C22.3511 14.173 22.2646 11.5768 22.5242 10.4518C22.6972 9.58647 23.0434 8.80763 23.3895 8.02879C25.3799 6.21149 33.4279 6.29803 35.5048 8.02879C35.851 8.80763 36.1971 9.58647 36.3702 10.4518C36.6298 11.5768 36.5433 14.173 36.8029 15.298C37.1491 14.0864 37.4087 12.7884 37.4952 11.4903C38.101 7.5961 36.0241 5.95188 35.5914 5.60573Z" fill="#472B29"/>
<path d="M28.4951 14.4334C27.1105 12.7027 21.7451 13.9142 21.7451 13.9142C21.8317 14.3469 21.9182 14.6931 22.0047 15.0392C22.4374 15.0392 22.4374 15.9911 22.4374 16.3373C22.6105 17.895 23.6489 19.1065 25.8989 19.0199C27.4566 19.0199 28.6681 17.8084 28.7547 16.2507C28.8412 15.7315 28.7547 15.0392 28.4951 14.4334ZM28.2355 16.4238C28.2355 17.7219 27.197 18.7603 25.8989 18.7603C25.8989 18.7603 25.8989 18.7603 25.8124 18.7603H25.3797C23.2163 18.7603 22.7836 16.8565 22.7836 15.645C22.7836 14.9527 23.3028 14.3469 23.9951 14.2604C24.4278 14.2604 24.8605 14.2604 25.3797 14.2604C27.0239 14.2604 27.7162 14.693 27.9758 14.9527C28.2355 15.3854 28.322 15.9046 28.2355 16.4238ZM30.0527 16.3373C30.0527 17.895 31.3508 19.1065 32.9085 19.1065C35.1585 19.193 36.1969 17.9815 36.37 16.4238C36.37 16.0777 36.4565 15.2123 36.8027 15.1257C36.8892 14.7796 36.9758 14.3469 37.0623 14.0007C37.0623 14.0007 31.697 12.7892 30.3124 14.52C30.0527 15.0392 29.9662 15.7315 30.0527 16.3373ZM30.8316 14.8661C31.0047 14.52 31.697 14.1738 33.3412 14.1738C33.8604 14.1738 34.2931 14.1738 34.7258 14.1738C35.4181 14.2604 35.9373 14.8661 35.9373 15.5584C35.9373 16.77 35.5046 18.6738 33.3412 18.6738H32.995C31.697 18.6738 30.6585 17.7219 30.6585 16.4238C30.6585 16.4238 30.6585 16.4238 30.6585 16.3373C30.572 15.818 30.6585 15.2988 30.8316 14.8661Z" fill="#EDF7F5"/>
<path d="M30.3987 15.8179C30.1391 15.6448 29.7929 15.5583 29.3602 15.5583C29.0141 15.5583 28.6679 15.6448 28.4083 15.8179C28.3218 15.5583 28.2352 15.2987 28.1487 15.0391H30.6583C30.5717 15.2987 30.4852 15.5583 30.3987 15.8179Z" fill="#EDF7F5"/>
</svg>
