<svg width="456" height="439" viewBox="0 0 456 439" fill="none" xmlns="http://www.w3.org/2000/svg">
<path d="M245.278 126.395C241.203 119.389 230.551 117.387 224.188 122.391C222.115 123.964 220.471 126.18 218.04 127.038C211.892 129.111 213.322 121.748 206.887 122.677C195.949 124.25 202.026 143.624 185.726 147.27C179.721 148.628 169.355 141.336 163.207 142.194C154.485 143.481 153.198 158.637 144.405 159.423C141.116 159.709 138.114 157.779 134.897 157.35C131.68 156.921 127.462 159.423 128.606 162.497C130.464 170.862 130.178 170.862 132.609 178.726C137.327 193.739 141.402 209.323 154.199 218.474C166.996 227.625 180.65 233.201 195.806 237.633C209.533 241.637 225.475 244.64 239.701 243.353C258.217 241.637 275.018 230.913 287.671 217.259C300.325 203.604 309.476 187.09 318.484 170.79C314.838 174.222 308.761 171.291 305.472 167.43C302.184 163.641 299.467 158.637 294.606 157.421C290.459 156.421 285.956 158.494 281.881 157.207C273.802 154.776 272.515 141.479 264.151 140.335C260.934 139.906 256.502 141.694 253.356 140.907C247.78 139.334 248.28 131.471 245.278 126.395Z" fill="#F99F1B"/>
<path d="M207.316 438.164C261.881 438.164 306.115 393.898 306.115 339.293C306.115 284.688 261.881 240.422 207.316 240.422C152.751 240.422 108.517 284.688 108.517 339.293C108.517 393.898 152.751 438.164 207.316 438.164Z" fill="#EBF4FD"/>
<path d="M331.995 330.785C332.281 330.499 332.496 330.285 332.782 329.999L331.924 330.642L331.995 330.785Z" fill="#78A9EF"/>
<path d="M317.625 341.652L317.768 341.866C319.627 340.722 321.414 339.507 323.202 338.22L322.773 337.648L317.625 341.652Z" fill="#78A9EF"/>
<path d="M348.581 306.336C349.439 304.334 350.154 302.261 350.869 300.188L346.508 303.548L348.581 306.336Z" fill="#78A9EF"/>
<path d="M337.357 310.625L341.36 315.772L336.141 319.776L332.209 314.557L337.357 310.625Z" fill="#78A9EF"/>
<path d="M323.059 321.563L326.991 326.782L321.844 330.785L317.912 325.566L323.059 321.563Z" fill="#78A9EF"/>
<path d="M308.761 332.572L312.693 337.791L307.545 341.723L303.542 336.576L308.761 332.572Z" fill="#78A9EF"/>
<path d="M295.677 350.874L298.394 348.801L294.39 343.653L289.243 347.657L292.317 351.66C292.603 351.589 292.818 351.589 293.104 351.517C293.962 351.231 294.819 351.017 295.677 350.874Z" fill="#78A9EF"/>
<path d="M344.505 287.819L348.509 292.967L353.656 289.035V288.963L349.724 283.816L344.505 287.819Z" fill="#78A9EF"/>
<path d="M334.14 303.976L330.208 298.758L335.355 294.826L339.359 299.973L334.14 303.976Z" fill="#78A9EF"/>
<path d="M319.842 314.986L315.91 309.767L321.057 305.835L325.06 310.982L319.842 314.986Z" fill="#78A9EF"/>
<path d="M305.543 325.924L301.54 320.776L306.759 316.773L310.691 321.992L305.543 325.924Z" fill="#78A9EF"/>
<path d="M291.246 336.933L287.242 331.786L292.39 327.782L296.393 333.001L291.246 336.933Z" fill="#78A9EF"/>
<path d="M350.011 267.731L353.943 272.878L348.795 276.882L344.792 271.663L350.011 267.731Z" fill="#78A9EF"/>
<path d="M335.641 278.74L339.644 283.888L334.497 287.891L330.494 282.672L335.641 278.74Z" fill="#78A9EF"/>
<path d="M321.343 289.678L325.347 294.897L320.128 298.829L316.196 293.682L321.343 289.678Z" fill="#78A9EF"/>
<path d="M307.045 300.688L310.977 305.907L305.829 309.839L301.897 304.691L307.045 300.688Z" fill="#78A9EF"/>
<path d="M292.747 311.697L296.679 316.844L291.531 320.848L287.528 315.701L292.747 311.697Z" fill="#78A9EF"/>
<path d="M278.378 322.707L282.381 327.854L277.234 331.858L273.23 326.639L278.378 322.707Z" fill="#78A9EF"/>
<path d="M346.794 261.082L342.79 255.935L348.009 251.932L351.941 257.079L346.794 261.082Z" fill="#78A9EF"/>
<path d="M332.495 272.092L328.492 266.873L333.711 262.941L337.642 268.088L332.495 272.092Z" fill="#78A9EF"/>
<path d="M318.126 283.101L314.194 277.882L319.342 273.95L323.345 279.098L318.126 283.101Z" fill="#78A9EF"/>
<path d="M303.827 294.039L299.896 288.892L305.043 284.888L309.046 290.107L303.827 294.039Z" fill="#78A9EF"/>
<path d="M289.529 305.049L285.526 299.901L290.745 295.898L294.677 301.117L289.529 305.049Z" fill="#78A9EF"/>
<path d="M275.231 316.058L271.228 310.84L276.447 306.908L280.379 312.055L275.231 316.058Z" fill="#78A9EF"/>
<path d="M347.079 244.997L347.651 244.568C346.722 242.566 345.721 240.565 344.649 238.634L343.147 239.778L347.079 244.997Z" fill="#78A9EF"/>
<path d="M333.997 246.784L337.929 252.003L332.782 256.006L328.778 250.787L333.997 246.784Z" fill="#78A9EF"/>
<path d="M319.699 257.794L323.631 263.012L318.483 266.944L314.48 261.797L319.699 257.794Z" fill="#78A9EF"/>
<path d="M305.329 268.803L309.332 274.022L304.114 277.954L300.182 272.807L305.329 268.803Z" fill="#78A9EF"/>
<path d="M291.031 279.813L295.034 284.96L289.815 288.963L285.883 283.745L291.031 279.813Z" fill="#78A9EF"/>
<path d="M276.732 290.823L280.664 295.97L275.517 299.973L271.514 294.754L276.732 290.823Z" fill="#78A9EF"/>
<path d="M262.364 301.76L266.367 306.979L261.22 310.982L257.216 305.763L262.364 301.76Z" fill="#78A9EF"/>
<path d="M330.78 240.207L326.848 234.988L331.995 231.057L335.927 236.204L330.78 240.207Z" fill="#78A9EF"/>
<path d="M317.697 242.066L321.701 247.213L316.482 251.217L312.55 245.998L317.697 242.066Z" fill="#78A9EF"/>
<path d="M303.399 253.004L307.331 258.223L302.183 262.155L298.251 257.007L303.399 253.004Z" fill="#78A9EF"/>
<path d="M287.814 273.164L283.882 268.017L289.03 264.013L293.033 269.232L287.814 273.164Z" fill="#78A9EF"/>
<path d="M273.516 284.173L269.513 278.955L274.731 275.023L278.663 280.17L273.516 284.173Z" fill="#78A9EF"/>
<path d="M259.218 295.183L255.214 289.964L260.433 286.032L264.365 291.18L259.218 295.183Z" fill="#78A9EF"/>
<path d="M331.209 221.477C329.708 220.047 328.135 218.617 326.562 217.33L330.279 222.192L331.209 221.477Z" fill="#78A9EF"/>
<path d="M315.981 233.13L311.978 227.982L317.197 223.979L321.129 229.198L315.981 233.13Z" fill="#78A9EF"/>
<path d="M302.898 234.988L306.83 240.207L301.683 244.139L297.68 238.992L302.898 234.988Z" fill="#78A9EF"/>
<path d="M287.313 255.149L283.381 250.001L288.529 245.998L292.532 251.145L287.313 255.149Z" fill="#78A9EF"/>
<path d="M273.016 266.158L269.012 260.939L274.231 257.007L278.163 262.154L273.016 266.158Z" fill="#78A9EF"/>
<path d="M258.718 277.168L254.714 271.949L259.933 267.945L263.865 273.164L258.718 277.168Z" fill="#78A9EF"/>
<path d="M245.635 278.955L249.567 284.173L244.419 288.105L240.416 282.958L245.635 278.955Z" fill="#78A9EF"/>
<path d="M314.051 217.402L319.199 213.398L317.125 210.753C316.125 210.181 315.124 209.609 314.123 209.037L310.048 212.183L314.051 217.402Z" fill="#78A9EF"/>
<path d="M299.681 228.34L295.75 223.192L300.897 219.189L304.9 224.408L299.681 228.34Z" fill="#78A9EF"/>
<path d="M285.383 239.349L281.38 234.202L286.599 230.199L290.531 235.417L285.383 239.349Z" fill="#78A9EF"/>
<path d="M271.085 250.359L267.082 245.211L272.301 241.208L276.233 246.355L271.085 250.359Z" fill="#78A9EF"/>
<path d="M256.715 261.368L252.783 256.15L257.93 252.218L261.934 257.365L256.715 261.368Z" fill="#78A9EF"/>
<path d="M242.418 272.378L238.486 267.159L243.633 263.227L247.637 268.374L242.418 272.378Z" fill="#78A9EF"/>
<path d="M299.968 212.254L305.115 208.251L301.683 203.747C301.326 203.676 301.04 203.533 300.754 203.461L296.036 207.107L299.968 212.254Z" fill="#78A9EF"/>
<path d="M285.669 223.264L281.666 218.045L286.813 214.113L290.817 219.26L285.669 223.264Z" fill="#78A9EF"/>
<path d="M272.586 225.123L276.518 230.27L271.371 234.273L267.368 229.055L272.586 225.123Z" fill="#78A9EF"/>
<path d="M258.217 236.132L262.221 241.28L257.073 245.283L253.07 240.064L258.217 236.132Z" fill="#78A9EF"/>
<path d="M243.919 247.07L247.922 252.289L242.703 256.221L238.771 251.074L243.919 247.07Z" fill="#78A9EF"/>
<path d="M229.621 258.08L233.553 263.298L228.406 267.23L224.402 262.083L229.621 258.08Z" fill="#78A9EF"/>
<path d="M283.668 207.465L288.815 203.461L286.527 200.53C285.169 200.387 283.739 200.244 282.381 200.172L279.664 202.246L283.668 207.465Z" fill="#78A9EF"/>
<path d="M269.37 218.474L265.366 213.327L270.585 209.324L274.517 214.471L269.37 218.474Z" fill="#78A9EF"/>
<path d="M255.072 229.484L251.068 224.265L256.287 220.333L260.219 225.48L255.072 229.484Z" fill="#78A9EF"/>
<path d="M240.702 240.493L236.771 235.274L241.918 231.342L245.921 236.49L240.702 240.493Z" fill="#78A9EF"/>
<path d="M226.404 251.431L222.472 246.284L227.619 242.28L231.623 247.499L226.404 251.431Z" fill="#78A9EF"/>
<path d="M272.229 200.387C270.942 200.458 269.727 200.601 268.44 200.816L269.655 202.389L272.229 200.387Z" fill="#78A9EF"/>
<path d="M255.286 213.327L251.354 208.179L256.501 204.176L260.505 209.395L255.286 213.327Z" fill="#78A9EF"/>
<path d="M240.988 224.336L237.056 219.189L242.203 215.186L246.207 220.404L240.988 224.336Z" fill="#78A9EF"/>
<path d="M226.69 235.346L222.687 230.199L227.906 226.195L231.838 231.342L226.69 235.346Z" fill="#78A9EF"/>
<path d="M217.539 242.352L213.536 237.205L212.463 237.991C211.534 239.635 210.604 241.28 209.747 242.995L212.32 246.284L217.539 242.352Z" fill="#78A9EF"/>
<path d="M183.081 335.361L182.008 344.797L186.083 343.296L183.081 335.361Z" fill="#A1C3FC"/>
<path d="M172.643 307.694L167.854 350.159L175.288 347.371L178.148 322.278L172.643 307.694Z" fill="#A1C3FC"/>
<path d="M162.134 280.099L153.698 355.521L161.205 352.733L167.639 294.611L162.134 280.099Z" fill="#A1C3FC"/>
<path d="M148.336 282.1L139.543 360.954L147.049 358.094L155.843 279.312L148.336 282.1Z" fill="#A1C3FC"/>
<path d="M134.181 287.462L125.388 366.316L132.895 363.456L141.688 284.674L134.181 287.462Z" fill="#A1C3FC"/>
<path d="M120.026 292.895L113.735 349.515L119.24 364.099L127.533 290.036L120.026 292.895Z" fill="#A1C3FC"/>
<path d="M105.943 298.257L103.298 321.92L108.803 336.433L113.378 295.397L105.943 298.257Z" fill="#A1C3FC"/>
<path d="M95.7915 302.118L98.2937 308.766L99.223 300.759L95.7915 302.118Z" fill="#A1C3FC"/>
<path d="M379.893 69.3455C373.674 71.5617 370.6 78.3533 368.384 84.5729C359.948 108.308 354.872 133.186 353.299 158.351C345.721 151.559 337.071 145.911 327.849 141.765C344.291 118.888 355.873 92.5798 361.592 64.9846C354.157 51.1155 357.446 55.119 359.948 45.3963C362.521 35.3877 367.812 46.4687 377.534 51.8304C383.253 54.976 390.617 58.622 389.33 65.0561C387.614 68.2017 383.253 68.1302 379.893 69.3455Z" fill="#FFBEB6"/>
<path d="M455.888 91.0785L444.95 106.806L314.266 15.7278L325.204 0L455.888 91.0785Z" fill="url(#paint0_linear)"/>
<path d="M366.167 39.677C366.953 39.6055 367.597 39.1766 368.24 38.6761C372.887 35.0301 376.605 30.0973 378.749 24.5926C378.749 22.8768 376.533 21.8759 374.889 22.3049C373.245 22.8053 372.029 24.1636 370.957 25.5219C369.241 27.6666 367.525 29.8113 365.738 31.9561C364.666 33.2429 363.593 34.6012 363.45 36.2455C363.307 37.9612 364.523 39.82 366.167 39.677Z" fill="#FFBEB6"/>
<path d="M371.028 38.5334C371.815 40.3207 374.317 40.7496 376.104 39.9632C377.892 39.1768 379.107 37.5325 380.251 36.0313C380.966 35.0304 381.752 34.0295 382.467 33.0287C383.825 31.2414 385.183 29.1682 384.898 27.0235C384.612 24.8073 381.537 23.0915 380.108 24.8073C377.749 27.5239 375.389 30.1691 373.102 32.8857C371.672 34.4585 370.171 36.6032 371.028 38.5334Z" fill="#FFBEB6"/>
<path d="M378.893 44.61C379.536 44.5386 380.108 44.1811 380.608 43.7522C384.54 40.6781 387.686 36.5317 389.473 31.8848C389.473 30.455 387.614 29.5971 386.256 29.9546C384.826 30.3835 383.825 31.5273 382.968 32.6712C381.538 34.4584 380.036 36.2457 378.607 38.1044C377.749 39.1768 376.819 40.3921 376.676 41.7504C376.462 43.1088 377.463 44.6815 378.893 44.61Z" fill="#FFBEB6"/>
<path d="M385.183 49.7573C386.113 51.1156 388.257 51.0441 389.616 50.1147C390.974 49.1854 391.689 47.6126 392.404 46.1828C392.833 45.2534 393.333 44.324 393.762 43.3232C394.549 41.6074 395.406 39.6772 394.763 37.8899C394.191 36.1027 391.332 35.1733 390.402 36.8176C388.901 39.4627 387.4 42.0364 385.898 44.6815C384.969 46.2543 384.111 48.256 385.183 49.7573Z" fill="#FFBEB6"/>
<path d="M342.576 28.4531C343.434 27.3808 345.15 27.5238 346.437 28.0957C349.082 29.2395 350.869 31.7417 352.156 34.3153C353.443 36.889 354.229 39.6771 355.587 42.2507C356.874 44.6814 358.661 46.8976 360.735 48.6849C361.736 49.5427 362.879 50.3291 363.666 51.4015C364.452 52.4738 365.024 53.8321 364.595 55.119C364.023 56.9062 362.022 57.6926 360.234 58.2645C359.662 58.4075 359.09 58.622 358.518 58.479C357.875 58.336 357.446 57.7641 357.017 57.2637C351.512 50.0432 347.366 41.7503 344.864 33.0285C344.363 31.3842 343.863 29.597 342.576 28.4531Z" fill="#FFBEB6"/>
<path d="M65.4081 30.0258C62.5485 18.6589 57.9731 18.2299 49.6088 9.93709C48.2505 8.57877 46.8207 6.50556 45.3194 7.6494C43.8181 11.7958 54.2557 18.8734 55.1135 28.5245C41.5304 20.6606 21.3702 16.8716 9.14535 17.658C4.85594 17.944 12.2909 21.3755 22.0851 22.8053C31.0213 24.0921 36.4546 27.6667 44.4615 31.8131C44.9619 33.1714 39.6002 30.8837 38.1704 30.5263C24.8732 27.3092 15.508 24.807 1.28143 23.7347C-2.93649 24.2351 4.28402 31.3841 8.14449 32.8854C17.6527 36.6029 28.3762 39.391 37.9559 43.1085C35.4537 47.6839 10.3607 32.1705 15.2935 38.3187C24.0868 48.1843 37.4555 53.8321 50.6811 53.1886C52.8259 53.1172 55.042 53.1172 57.1868 53.6176C63.1204 54.9044 67.8388 68.2016 69.1971 73.2774C79.1342 109.308 86.9267 124.321 95.2195 146.841C97.6502 143.409 111.233 130.041 115.094 128.468C107.587 108.093 85.0679 83.5005 77.7759 63.0543C74.6303 54.118 70.6269 47.5409 67.9818 40.8923C67.4098 39.534 64.9077 28.596 65.4081 30.0258Z" fill="url(#paint1_linear)"/>
<path d="M241.774 228.125C240.774 227.625 239.701 227.125 238.7 226.624C239.773 208.466 239.701 190.307 238.414 172.149C230.979 177.01 221.757 179.083 212.964 177.868C215.538 195.025 215.752 212.541 213.464 229.77C222.83 228.411 232.266 227.839 241.774 228.125Z" fill="#F2A19C"/>
<path d="M223.259 191.093C228.549 190.664 233.339 187.805 237.271 184.23C245.563 176.581 250.496 165.357 250.353 154.062C250.353 150.416 249.781 146.77 248.495 143.338C244.062 131.328 229.907 123.821 217.468 126.967C212.606 128.182 208.103 130.827 204.743 134.616C198.022 142.194 196.664 153.204 197.951 163.284C198.809 170.147 200.882 177.081 205.171 182.586C209.604 187.876 216.395 191.665 223.259 191.093Z" fill="#FFBEB6"/>
<path d="M204.171 196.67C204.028 196.67 203.885 196.598 203.742 196.455C202.026 194.597 203.527 192.023 204.814 190.021L205.171 189.449C207.03 186.304 207.03 182.157 205.171 179.012C204.957 178.654 204.743 178.297 204.457 177.939C203.527 176.509 202.526 175.008 202.812 173.221C203.027 171.72 204.099 170.576 205.1 169.432C206.244 168.145 207.245 167.073 206.744 165.786C206.458 165.071 205.6 164.499 204.743 163.999C203.527 163.284 202.169 162.426 202.383 160.925C202.741 158.851 204.528 157.708 206.244 156.635C206.959 156.206 207.602 155.777 208.174 155.277C209.461 154.205 208.174 151.631 207.745 150.845C207.459 150.344 207.173 149.915 206.887 149.415C206.172 148.342 205.457 147.199 205.171 145.84C204.528 143.124 205.815 140.049 208.46 137.976C210.676 136.189 213.965 135.117 216.896 134.187C217.182 134.116 217.539 134.259 217.611 134.545C217.682 134.831 217.539 135.188 217.253 135.26C215.252 135.903 211.391 137.047 209.175 138.834C207.459 140.192 205.672 142.766 206.315 145.554C206.601 146.698 207.173 147.699 207.888 148.771C208.174 149.272 208.46 149.772 208.746 150.201C209.389 151.416 210.748 154.491 208.889 156.063C208.246 156.564 207.531 157.064 206.816 157.493C205.243 158.494 203.742 159.423 203.456 160.996C203.313 161.711 204.028 162.211 205.243 162.926C206.244 163.498 207.388 164.213 207.745 165.286C208.389 167.216 207.102 168.646 205.815 170.075C204.885 171.076 204.028 172.077 203.813 173.221C203.599 174.579 204.457 175.795 205.314 177.081C205.6 177.439 205.815 177.868 206.029 178.225C208.103 181.728 208.103 186.375 205.958 189.878L205.6 190.45C204.242 192.595 203.313 194.382 204.385 195.526C204.6 195.74 204.6 196.098 204.385 196.312C204.385 196.67 204.314 196.67 204.171 196.67Z" fill="#F99F1B"/>
<path d="M315.051 163.141C310.833 163.141 306.901 159.137 305.615 157.707C302.54 154.276 299.109 150.415 294.891 151.059C293.819 151.202 292.746 151.702 291.674 152.203C290.459 152.775 289.243 153.275 287.885 153.418C283.167 153.918 279.664 149.2 278.019 146.412C277.805 146.054 277.59 145.626 277.376 145.268C275.589 142.123 273.73 138.905 270.513 137.619C267.367 136.403 263.793 137.547 260.433 138.62C259.432 138.977 258.36 139.263 257.359 139.549C253.999 140.478 250.138 139.978 247.779 138.405C246.349 137.404 245.491 136.046 245.277 134.402C245.277 134.116 245.491 133.83 245.777 133.758C246.135 133.687 246.349 133.973 246.421 134.259C246.564 135.545 247.279 136.618 248.422 137.404C250.496 138.834 253.999 139.191 257.001 138.405C258.002 138.119 259.003 137.833 260.004 137.476C263.578 136.332 267.296 135.116 270.87 136.475C274.445 137.833 276.375 141.265 278.305 144.625C278.52 144.982 278.734 145.411 278.949 145.769C280.45 148.342 283.596 152.632 287.742 152.203C288.886 152.06 290.03 151.559 291.174 151.059C292.317 150.558 293.461 150.058 294.677 149.843C299.466 149.129 303.327 153.418 306.401 156.85C307.902 158.565 313.121 163.784 317.553 161.282C317.839 161.139 318.197 161.21 318.34 161.496C318.483 161.782 318.411 162.14 318.125 162.283C317.124 162.926 316.052 163.141 315.051 163.141Z" fill="#F99F1B"/>
<path d="M340.073 116.1C321.7 153.061 302.827 183.873 272.229 220.261C262.292 212.755 252.283 212.54 239.272 214.471C238.557 220.118 234.125 224.765 228.406 224.765C218.254 224.694 214.608 216.687 214.608 216.687C208.889 214.542 193.304 213.97 182.151 218.26C177.934 202.46 151.339 191.093 143.404 176.795C127.676 148.414 130.107 146.698 113.521 121.105C105.585 127.11 96.0773 130.97 86.1401 132.114C103.441 174.794 123.672 216.186 146.764 256.007C147.05 256.507 147.479 258.008 148.122 260.153C150.267 267.874 154.056 284.031 156.987 293.038C156.201 312.841 151.911 372.964 148.408 418.575C164.851 430.871 185.297 438.163 207.388 438.163C243.919 438.163 275.804 418.289 292.89 388.764C295.463 361.812 297.394 336.933 296.893 328.998C296.536 323.493 296.035 317.917 296.822 312.412C297.179 309.624 297.465 304.763 297.823 299.473C298.395 291.609 299.109 282.887 300.825 279.098C324.488 225.981 344.005 185.875 363.594 131.185C356.23 126.609 347.294 120.676 340.073 116.1Z" fill="url(#paint2_linear)"/>
<path d="M223.115 152.774C235.769 147.913 240.988 139.978 249.853 137.404C249.853 137.404 242.632 116.672 241.202 106.592C236.698 104.519 230.05 105.948 225.189 106.878C217.396 108.308 209.389 108.165 201.668 106.377C199.738 116.886 196.164 139.835 196.164 139.835C204.814 141.193 212.463 148.557 223.115 152.774Z" fill="#151A4F"/>
<path d="M163.278 117.816L224.188 129.969L278.163 107.807L212.249 94.7961L163.278 117.816Z" fill="#23286B"/>
<path d="M213.035 110.881L221.971 112.669L229.907 109.38L220.256 107.521L213.035 110.881Z" fill="#428DFC"/>
<path d="M292.103 125.251C287.027 125.251 281.951 123.678 277.948 120.747C276.304 119.603 274.802 118.173 273.373 116.815C272.229 115.743 271.085 114.67 269.87 113.741C263.578 108.665 254.642 106.02 244.92 106.163C235.84 106.306 226.976 108.737 218.826 111.31C218.683 111.382 218.54 111.31 218.468 111.096C218.397 110.953 218.468 110.81 218.683 110.738C226.904 108.165 235.84 105.734 244.92 105.591C254.857 105.448 263.793 108.165 270.227 113.312C271.442 114.313 272.658 115.385 273.73 116.458C275.16 117.816 276.661 119.174 278.234 120.318C283.882 124.393 291.603 125.751 298.251 123.893C300.181 123.321 301.325 122.606 301.826 121.534C302.112 120.89 302.04 119.889 301.54 119.246C301.325 118.96 300.896 118.531 300.253 118.674C300.11 118.674 299.967 118.602 299.895 118.459C299.895 118.316 299.967 118.173 300.11 118.102C300.825 117.959 301.468 118.245 301.969 118.888C302.612 119.675 302.755 120.89 302.326 121.748C301.54 123.392 299.753 124.036 298.394 124.465C296.392 124.965 294.248 125.251 292.103 125.251Z" fill="#428DFC"/>
<path d="M290.96 121.39C287.886 121.39 284.669 120.818 282.023 120.247C278.377 119.46 275.017 117.887 271.729 115.314C271.586 115.242 271.586 115.028 271.657 114.885C271.729 114.742 271.943 114.742 272.086 114.813C275.303 117.315 278.592 118.888 282.166 119.603C285.383 120.318 289.458 121.033 293.104 120.604C296.178 120.247 297.465 118.316 297.608 116.744C297.751 115.6 297.251 114.67 296.536 114.456C296.393 114.384 296.321 114.241 296.321 114.098C296.393 113.955 296.536 113.884 296.679 113.884C297.68 114.241 298.323 115.385 298.18 116.815C297.966 118.745 296.393 120.89 293.176 121.247C292.461 121.39 291.746 121.39 290.96 121.39Z" fill="#428DFC"/>
<path d="M291.388 130.041C287.456 130.041 283.453 128.897 280.164 126.752C275.589 123.821 272.729 120.032 271.514 115.528C271.443 115.385 271.586 115.242 271.729 115.171C271.872 115.099 272.015 115.242 272.086 115.385C273.23 119.746 276.09 123.463 280.522 126.323C284.597 128.968 289.744 130.041 294.534 129.254C294.677 129.254 294.82 129.326 294.891 129.469C294.891 129.612 294.82 129.755 294.677 129.826C293.533 129.898 292.461 130.041 291.388 130.041Z" fill="#428DFC"/>
<defs>
<linearGradient id="paint0_linear" x1="379.302" y1="61.4106" x2="390.319" y2="45.5642" gradientUnits="userSpaceOnUse">
<stop stop-color="#EEEEEE"/>
<stop offset="1" stop-color="#D6D7D8"/>
</linearGradient>
<linearGradient id="paint1_linear" x1="-0.00890171" y1="77.0889" x2="115.044" y2="77.0889" gradientUnits="userSpaceOnUse">
<stop stop-color="#FFBEB6"/>
<stop offset="1" stop-color="#F2A19C"/>
</linearGradient>
<linearGradient id="paint2_linear" x1="-28.7277" y1="277.146" x2="485.478" y2="277.146" gradientUnits="userSpaceOnUse">
<stop stop-color="#428DFC"/>
<stop offset="1" stop-color="#1D72D8"/>
</linearGradient>
</defs>
</svg>
