<svg width="302" height="436" viewBox="0 0 302 436" fill="none" xmlns="http://www.w3.org/2000/svg">
<path d="M123.367 435.871C180.889 435.871 227.519 388.971 227.519 331.118C227.519 273.264 180.889 226.364 123.367 226.364C65.846 226.364 19.2158 273.264 19.2158 331.118C19.2158 388.971 65.846 435.871 123.367 435.871Z" fill="#EBF4FD"/>
<path d="M240.763 333.342L240.918 333.526C242.924 332.546 244.854 331.505 246.784 330.403L246.32 329.913L240.763 333.342Z" fill="#78A9EF"/>
<path d="M273.727 297.404C274.911 295.051 275.898 292.615 276.885 290.179L270.865 294.127L273.727 297.404Z" fill="#78A9EF"/>
<path d="M262.512 301.016L267.253 306.434L261.072 310.648L256.416 305.155L262.512 301.016Z" fill="#78A9EF"/>
<path d="M246.746 311.852L250.396 317.985L245.617 322.689L241.967 316.557L246.746 311.852Z" fill="#78A9EF"/>
<path d="M231.291 325.097L235.947 329.904L229.851 333.526L225.11 328.785L231.291 325.097Z" fill="#78A9EF"/>
<path d="M218.281 342.448L221.498 340.578L216.757 335.934L210.662 339.546L214.302 343.158C214.641 343.093 214.895 343.093 215.233 343.029C216.249 342.771 217.265 342.577 218.281 342.448Z" fill="#78A9EF"/>
<path d="M269.661 277.386L273.875 284.159L279.293 278.985V278.891L275.154 272.118L269.661 277.386Z" fill="#78A9EF"/>
<path d="M258.664 293.791L254.008 288.985L260.103 285.363L264.844 290.104L258.664 293.791Z" fill="#78A9EF"/>
<path d="M243.698 304.628L239.559 299.821L244.977 296.2L249.192 300.941L243.698 304.628Z" fill="#78A9EF"/>
<path d="M228.647 317.873L223.906 311.777L230.086 307.036L234.743 313.216L228.647 317.873Z" fill="#78A9EF"/>
<path d="M213.672 329.913L209.458 323.818L214.876 319.077L219.09 325.257L213.672 329.913Z" fill="#78A9EF"/>
<path d="M275.672 255.261L279.293 260.68L274.552 264.894L270.865 259.4L275.672 255.261Z" fill="#78A9EF"/>
<path d="M260.103 267.302L264.844 272.043L258.749 275.73L254.008 270.924L260.103 267.302Z" fill="#78A9EF"/>
<path d="M245.655 278.139L250.396 284.319L244.215 288.975L239.559 282.88L245.655 278.139Z" fill="#78A9EF"/>
<path d="M230.571 290.179L234.743 296.359L229.282 301.016L225.11 294.92L230.571 290.179Z" fill="#78A9EF"/>
<path d="M214.951 302.22L219.09 307.638L213.672 311.852L209.458 306.434L214.951 302.22Z" fill="#78A9EF"/>
<path d="M199.9 313.056L204.641 319.152L198.546 323.893L193.805 317.713L199.9 313.056Z" fill="#78A9EF"/>
<path d="M272.671 246.833L268.457 242.769L273.95 239.609L278.089 243.672L272.671 246.833Z" fill="#78A9EF"/>
<path d="M257.545 260.078L252.804 254.584L258.984 250.445L263.64 255.864L257.545 260.078Z" fill="#78A9EF"/>
<path d="M242.494 272.118L238.355 265.938L243.773 261.282L247.987 267.377L242.494 272.118Z" fill="#78A9EF"/>
<path d="M226.154 284.159L221.498 278.063L227.594 273.322L232.335 279.503L226.154 284.159Z" fill="#78A9EF"/>
<path d="M211.941 294.996L208.253 290.255L213.06 286.567L216.682 291.374L211.941 294.996Z" fill="#78A9EF"/>
<path d="M196.815 305.832L192.601 301.025L198.094 297.404L202.233 302.145L196.815 305.832Z" fill="#78A9EF"/>
<path d="M272.661 231.18L273.273 230.774C272.279 228.88 271.209 226.986 270.062 225.16L268.457 226.242L272.661 231.18Z" fill="#78A9EF"/>
<path d="M258.984 233.588L263.64 239.039L257.545 243.221L252.804 237.77L258.984 233.588Z" fill="#78A9EF"/>
<path d="M243.849 244.425L247.987 250.605L242.569 255.261L238.355 249.166L243.849 244.425Z" fill="#78A9EF"/>
<path d="M228.798 257.669L233.539 262.476L227.358 266.098L222.702 261.357L228.798 257.669Z" fill="#78A9EF"/>
<path d="M212.994 268.506L216.682 273.247L211.875 276.935L208.253 272.128L212.994 268.506Z" fill="#78A9EF"/>
<path d="M198.094 279.343L202.233 285.438L196.815 290.179L192.601 283.999L198.094 279.343Z" fill="#78A9EF"/>
<path d="M182.893 291.383L186.58 296.834L181.839 301.016L178.152 295.565L182.893 291.383Z" fill="#78A9EF"/>
<path d="M254.568 226.364L250.396 220.87L255.857 216.731L260.029 222.15L254.568 226.364Z" fill="#78A9EF"/>
<path d="M241.366 228.772L245.58 234.19L240.086 238.404L235.947 232.911L241.366 228.772Z" fill="#78A9EF"/>
<path d="M225.594 240.813L228.722 246.306L224.627 250.445L221.498 245.027L225.594 240.813Z" fill="#78A9EF"/>
<path d="M209.467 261.282L205.846 256.541L210.587 252.853L214.274 257.66L209.467 261.282Z" fill="#78A9EF"/>
<path d="M194.407 272.118L190.192 266.625L195.686 262.486L199.825 267.904L194.407 272.118Z" fill="#78A9EF"/>
<path d="M179.431 285.363L175.744 279.183L180.55 274.526L184.172 280.622L179.431 285.363Z" fill="#78A9EF"/>
<path d="M255.212 206.391C253.656 204.974 252.026 203.558 250.396 202.283L254.249 207.099L255.212 206.391Z" fill="#78A9EF"/>
<path d="M239.635 219.14L235.947 213.721L240.754 209.507L244.376 215.001L239.635 219.14Z" fill="#78A9EF"/>
<path d="M225.101 220.344L228.723 225.837L223.982 229.976L220.294 224.558L225.101 220.344Z" fill="#78A9EF"/>
<path d="M209.467 242.017L205.846 236.598L210.587 232.384L214.274 237.803L209.467 242.017Z" fill="#78A9EF"/>
<path d="M193.73 255.261L188.989 248.394L195.169 243.221L199.825 249.994L193.73 255.261Z" fill="#78A9EF"/>
<path d="M178.754 266.098L174.54 260.647L180.034 256.466L184.173 261.917L178.754 266.098Z" fill="#78A9EF"/>
<path d="M165.067 268.506L169.724 272.626L163.628 275.73L158.887 271.667L165.067 268.506Z" fill="#78A9EF"/>
<path d="M237.753 202.283L243.172 198.249L240.989 195.583C239.936 195.007 238.882 194.431 237.829 193.854L233.539 197.024L237.753 202.283Z" fill="#78A9EF"/>
<path d="M222.025 213.119L217.886 208.378L223.305 204.691L227.519 209.498L222.025 213.119Z" fill="#78A9EF"/>
<path d="M207.125 226.364L203.438 220.946L208.244 216.731L211.866 222.225L207.125 226.364Z" fill="#78A9EF"/>
<path d="M191.322 237.2L186.581 231.782L192.761 227.568L197.417 232.986L191.322 237.2Z" fill="#78A9EF"/>
<path d="M176.271 249.241L172.132 243.748L177.55 239.609L181.764 245.027L176.271 249.241Z" fill="#78A9EF"/>
<path d="M161.135 260.078L156.479 255.271L162.575 251.649L167.316 256.39L161.135 260.078Z" fill="#78A9EF"/>
<path d="M222.058 197.466L227.519 193.081L223.878 188.147C223.499 188.069 223.195 187.912 222.892 187.834L217.886 191.828L222.058 197.466Z" fill="#78A9EF"/>
<path d="M207.652 208.303L203.438 202.809L208.856 198.67L213.07 204.089L207.652 208.303Z" fill="#78A9EF"/>
<path d="M193.278 210.711L197.417 216.129L191.999 220.344L187.785 214.85L193.278 210.711Z" fill="#78A9EF"/>
<path d="M177.55 222.752L181.764 227.493L176.346 231.18L172.132 226.373L177.55 222.752Z" fill="#78A9EF"/>
<path d="M163.252 233.588L168.52 239.082L161.653 243.221L156.479 237.803L163.252 233.588Z" fill="#78A9EF"/>
<path d="M148.041 244.425L151.663 250.605L146.922 255.261L143.234 249.166L148.041 244.425Z" fill="#78A9EF"/>
<path d="M205.244 191.446L210.662 187.48L208.254 184.576C206.824 184.434 205.319 184.293 203.889 184.222L201.029 186.276L205.244 191.446Z" fill="#78A9EF"/>
<path d="M189.591 203.487L185.376 198.068L190.87 193.854L195.009 199.273L189.591 203.487Z" fill="#78A9EF"/>
<path d="M175.142 216.731L170.928 209.864L176.421 204.691L180.56 211.464L175.142 216.731Z" fill="#78A9EF"/>
<path d="M159.931 226.364L155.275 221.557L161.37 217.936L166.111 222.677L159.931 226.364Z" fill="#78A9EF"/>
<path d="M144.965 238.404L140.826 232.986L146.244 228.772L150.459 234.266L144.965 238.404Z" fill="#78A9EF"/>
<path d="M192.601 184.222C191.374 184.351 190.216 184.609 188.989 184.996L190.147 187.834L192.601 184.222Z" fill="#78A9EF"/>
<path d="M175.067 198.671L170.928 192.575L176.346 187.834L180.56 194.014L175.067 198.671Z" fill="#78A9EF"/>
<path d="M159.931 209.507L155.275 204.089L161.37 199.875L166.111 205.368L159.931 209.507Z" fill="#78A9EF"/>
<path d="M145.04 221.548L140.826 216.129L146.32 211.915L150.459 217.333L145.04 221.548Z" fill="#78A9EF"/>
<path d="M136.01 229.417L131.061 223.956L129.736 224.79C128.587 226.535 127.438 228.279 126.377 230.099L129.559 233.588L136.01 229.417Z" fill="#78A9EF"/>
<path d="M97.8602 327.505L96.2759 337.138L102.296 335.605L97.8602 327.505Z" fill="#A1C3FC"/>
<path d="M88.0728 297.404L83.0308 343.158L90.8572 340.154L93.8673 313.117L88.0728 297.404Z" fill="#A1C3FC"/>
<path d="M77.3254 269.71L68.582 349.178L76.3621 346.241L83.0308 285.001L77.3254 269.71Z" fill="#A1C3FC"/>
<path d="M62.0231 271.467L52.9292 355.199L60.6922 352.162L69.7861 268.506L62.0231 271.467Z" fill="#A1C3FC"/>
<path d="M46.9248 276.283L38.4805 360.015L45.689 356.978L54.1333 273.322L46.9248 276.283Z" fill="#A1C3FC"/>
<path d="M32.3729 281.207L25.2358 341.959L31.4807 357.607L40.8887 278.139L32.3729 281.207Z" fill="#A1C3FC"/>
<path d="M17.243 288.384L14.3994 313.38L20.3173 328.709L25.236 285.363L17.243 288.384Z" fill="#A1C3FC"/>
<path d="M128.785 89.8366L138.989 91.5089L148.05 88.4318L137.03 86.6926L128.785 89.8366Z" fill="#428DFC"/>
<path d="M100.737 418.467H101.626C101.334 420.058 101.037 421.65 100.737 423.241V418.467Z" fill="white"/>
<path d="M108.724 69.39C110.214 67.2642 113.319 65.3416 119.629 65.3416C125.939 65.3416 128.701 66.486 130.632 69.2884C132.209 71.5814 125.702 75.5376 119.391 75.5376C113.08 75.5376 107.128 71.6696 108.724 69.39Z" fill="#151A4F"/>
<path d="M109.442 80.7263L128.58 81.8654C126.59 71.4568 127.359 62.1833 128.675 51.0018L109.633 49.9563C110.547 59.5133 111.787 69.6492 109.442 80.7263Z" fill="url(#paint0_linear)"/>
<path d="M162.571 89.4625C158.355 83.3858 150.861 81.2599 143.635 79.6314C135.315 77.7583 126.373 76.2434 117.765 76.1779C108.227 76.1044 99.1847 79.5418 91.1959 82.5287C82.0247 85.9595 75.687 93.0738 74.5555 102.778C73.424 112.482 73.5646 137.247 74.8875 146.929C78.8873 176.184 76.9631 197.235 78.2151 226.597C98.8954 225.088 165.188 224.57 165.349 223.701C172.284 186.217 167.973 143.428 166.7 105.333C166.516 99.8043 165.729 94.011 162.571 89.4625Z" fill="url(#paint1_linear)"/>
<path d="M164.721 204.381C172.599 206.773 162.614 356.713 159.643 429.262C134.204 438.881 108.919 436.473 98.4155 432.219C90.6811 356.613 84.4746 280.488 78.2868 206.393C107.201 204.242 164.721 204.381 164.721 204.381Z" fill="#F99F1B"/>
<path d="M0.000358582 239.844L46.6999 295.038L126.062 228.235L79.3647 173.043L0.000358582 239.844Z" fill="url(#paint2_linear)"/>
<path d="M221.762 196.841C214.097 176.267 202.999 161.4 196.974 163.632C190.948 165.865 192.275 184.355 199.94 204.927C207.604 225.5 218.702 240.369 224.728 238.136C230.754 235.903 229.426 217.415 221.762 196.841Z" fill="#1D72D8"/>
<path d="M41.6733 230.878C54.9782 219.811 63.1866 207.757 60.0076 203.956C56.8287 200.155 41.1283 199.878 27.8235 210.946C14.5186 222.014 10.6474 239.322 12.6065 244.961C14.2294 249.639 28.3698 241.945 41.6733 230.878Z" fill="#1D72D8"/>
<path d="M145.546 33.1528C145.778 35.5193 145.599 37.9193 145.123 40.251C143.689 47.3091 139.365 53.8564 133.103 57.4396C126.838 61.0215 118.68 61.3598 112.411 57.7859C110.945 56.9503 109.585 55.9141 108.46 54.6573C104.258 49.9684 103.896 42.9651 104.97 36.7667C106.802 26.1936 113.132 15.5296 123.394 12.3195C125.806 11.5654 128.448 11.2579 130.844 12.0547C132.954 12.7567 134.699 14.2461 136.276 15.8104C141.031 20.5194 144.893 26.4985 145.546 33.1528Z" fill="#FFBEB6"/>
<path d="M139.958 14.0228C141.463 18.7652 144.316 23.422 148.873 25.4476C150.823 26.314 153.08 26.6429 155.109 25.9824C160.177 24.3312 161.511 17.4897 159.818 12.4478C158.169 7.52898 154.462 3.33076 149.78 1.07388C148.396 0.408052 146.882 -0.102686 145.351 0.0176448C142.468 0.242263 140.13 2.73579 139.352 5.5141C138.574 8.29241 139.086 11.274 139.958 14.0228Z" fill="#F99F1B"/>
<path d="M112.179 20.8233C112.371 20.8233 112.559 20.7404 112.691 20.5826C115.983 16.6184 120.21 13.6021 124.917 11.8613C128.98 10.3585 133.404 9.82366 137.704 10.309C138.069 10.3545 138.399 10.0884 138.441 9.72472C138.483 9.35971 138.221 9.03081 137.855 8.9907C133.345 8.4813 128.711 9.04418 124.455 10.6165C119.53 12.4389 115.108 15.5902 111.668 19.7363C111.433 20.0197 111.473 20.4382 111.754 20.6722C111.877 20.7725 112.027 20.8233 112.179 20.8233Z" fill="#F99F1B"/>
<path d="M116.977 22.2618C117.196 22.2618 117.412 22.1522 117.539 21.9516C119.256 19.2415 122.025 16.9605 125.551 15.3521C128.978 13.7905 132.692 13.0217 135.873 12.4775C136.705 12.3358 137.21 12.3919 137.408 12.6486C137.635 12.9374 138.055 12.9896 138.341 12.7636C138.633 12.539 138.685 12.1219 138.459 11.8304C137.672 10.8209 136.2 11.0723 135.65 11.1672C132.382 11.7248 128.563 12.5149 124.995 14.1434C121.235 15.8575 118.266 18.3122 116.413 21.2403C116.216 21.5505 116.31 21.9596 116.62 22.1562C116.732 22.2297 116.853 22.2618 116.977 22.2618Z" fill="#F99F1B"/>
<path d="M122.415 26.8477C122.62 26.8477 122.824 26.7528 122.954 26.5723C125.812 22.6254 130.738 17.5073 137.979 15.5432C138.335 15.4483 138.542 15.082 138.447 14.7277C138.352 14.376 137.987 14.1635 137.63 14.2611C131.601 15.8949 126.152 19.8845 121.875 25.7955C121.659 26.0936 121.728 26.5067 122.024 26.7233C122.142 26.8089 122.279 26.8477 122.415 26.8477Z" fill="#F99F1B"/>
<path d="M128.485 29.7312C128.774 29.7312 129.038 29.5426 129.124 29.2525C130.202 25.5637 133.465 22.7466 136.087 20.4817C137.138 19.5725 138.333 18.543 139.697 18.1259C140.051 18.0189 140.245 17.6459 140.138 17.2969C140.032 16.9466 139.66 16.7487 139.307 16.8584C137.672 17.3584 136.369 18.4855 135.218 19.4816C132.463 21.8615 129.034 24.8203 127.848 28.8848C127.746 29.2365 127.947 29.6055 128.302 29.7071C128.361 29.7245 128.423 29.7312 128.485 29.7312Z" fill="#F99F1B"/>
<path d="M136.373 32.9702C137.355 28.6584 139.274 24.5056 141.919 20.9572L140.85 20.1643C138.096 23.8598 136.098 28.1864 135.075 32.6747L136.373 32.9702Z" fill="#F99F1B"/>
<path d="M140.06 46.817C140.428 46.817 140.725 46.5189 140.725 46.1538V42.4543C140.725 36.4966 140.725 29.7607 143.69 24.1653C143.981 24.1118 144.254 23.8725 144.295 23.5877C144.344 23.2709 144.09 22.9179 143.785 22.8136C143.351 22.6679 142.908 22.823 142.706 23.188C139.393 29.1484 139.393 36.2158 139.393 42.453V46.1525C139.394 46.5189 139.693 46.817 140.06 46.817Z" fill="#F99F1B"/>
<path d="M107.89 34.7318C113.262 34.7318 117.633 30.3731 117.633 25.0131C117.633 19.6543 113.262 15.2957 107.89 15.2957C102.518 15.2957 98.1469 19.6543 98.1469 25.0131C98.1469 30.3731 102.518 34.7318 107.89 34.7318ZM107.89 17.9523C111.795 17.9523 114.968 21.1197 114.968 25.0131C114.968 28.9064 111.792 32.0751 107.89 32.0751C103.987 32.0751 100.812 28.9078 100.812 25.0131C100.812 21.1183 103.985 17.9523 107.89 17.9523Z" fill="#23286B"/>
<path d="M129.064 47.7516C134.437 47.7516 138.809 43.3929 138.809 38.0329C138.809 32.6741 134.438 28.3154 129.064 28.3154C123.692 28.3154 119.321 32.6741 119.321 38.0329C119.321 43.3916 123.692 47.7516 129.064 47.7516ZM129.064 30.9707C132.969 30.9707 136.144 34.1381 136.144 38.0329C136.144 41.9276 132.966 45.095 129.064 45.095C125.161 45.095 121.986 41.9276 121.986 38.0329C121.986 34.1381 125.161 30.9707 129.064 30.9707Z" fill="#23286B"/>
<path d="M122.892 34.2997C122.914 33.0161 122.661 31.7232 122.163 30.5654C121.453 28.9088 120.305 27.6988 118.935 27.156C117.189 26.4594 115.212 26.9942 114.124 28.4502L116.259 30.0373C116.67 29.4877 117.424 29.4115 117.95 29.6228C118.646 29.8982 119.29 30.6229 119.713 31.6123C120.066 32.4305 120.242 33.345 120.228 34.2582L122.892 34.2997Z" fill="#23286B"/>
<path d="M146.32 9.10117C145.55 8.67333 144.631 8.63188 143.747 8.60381C135.086 8.311 125.613 8.27223 118.827 13.6484C125.486 11.1575 133.137 14.8263 137.669 20.2947C145.184 29.365 145.675 42.9744 139.052 52.7119C148.729 41.8634 152.501 26.4021 148.421 12.4611C148.041 11.1602 147.507 9.76032 146.32 9.10117Z" fill="#F99F1B"/>
<path d="M150.431 24.6386C150.647 24.6386 150.851 24.5344 150.975 24.3565C151.692 23.3351 151.791 21.9379 151.272 20.0808C149.656 14.3009 145.415 9.38466 139.923 6.92991C139.59 6.78016 139.194 6.92857 139.044 7.26282C138.894 7.59708 139.044 7.99016 139.378 8.14124C144.512 10.4382 148.479 15.0335 149.989 20.4377C150.181 21.117 150.273 21.7079 150.269 22.2093L149.445 20.6089C147.059 15.9761 144.338 11.3153 139.617 9.66811C139.269 9.54377 138.891 9.72961 138.769 10.0759C138.646 10.4208 138.831 10.8006 139.178 10.9222C143.433 12.4103 145.999 16.8225 148.26 21.2159L149.836 24.2777C149.942 24.4849 150.15 24.6213 150.383 24.6373C150.399 24.6386 150.414 24.6386 150.431 24.6386Z" fill="white"/>
<path d="M108.774 69.2361C113.999 74.3154 114.105 74.4598 117.819 76.1685C113.688 80.586 112.459 86.3819 107.669 90.0787C106.76 84.609 99.5386 79.2088 99.5386 79.2088C99.5386 79.2088 106.014 73.6041 108.774 69.2361Z" fill="#23286B"/>
<path d="M139.093 78.7623C139.093 78.7623 127.701 87.8928 126.676 90.6872C121.843 85.2963 121.47 82.3576 117.723 76.1659C124.007 74.0253 126.283 73.3394 130.671 69.3284C134.291 74.647 139.093 78.7623 139.093 78.7623Z" fill="#23286B"/>
<path d="M180.389 189.419C180.895 178.219 188.005 174.112 195.564 165.814C201.623 159.162 224.449 133.819 228.284 129.175C233.787 122.507 237.448 113.89 244.942 109.561C253.672 104.515 260.653 107.32 269.983 103.46C275.886 101.018 265.808 112.342 259.422 112.541C257.201 112.61 254.908 112.228 252.794 112.911C252.304 113.07 251.843 113.29 251.401 113.541C253.974 114.025 256.991 114.859 258.73 115.645C270.729 121.064 284.993 120.837 297.695 124.319C299.747 124.88 302.227 126.907 300.93 128.589C299.717 130.161 297.289 128.68 295.306 128.524C294.156 128.434 275.819 124.542 268.082 124.031C269.489 124.69 270.913 125.311 272.403 125.752C275.894 126.787 279.588 126.826 283.223 127.066C286.193 127.263 289.155 127.6 292.094 128.072C295.037 128.546 303.592 130.121 299.382 131.92C293.67 134.361 276.782 132.03 266.059 127.652C270.827 132.575 275.597 137.5 280.365 142.424C281.331 143.419 283.043 145.419 281.807 146.05C279.591 147.182 276.408 142.677 274.222 140.313C267.441 132.978 259.29 126.92 250.323 122.496C249.371 122.175 248.423 121.782 247.474 121.31C247.418 121.302 247.365 121.289 247.309 121.285C245.73 121.173 244.46 122.502 243.478 123.741C237.952 130.719 218.422 170.143 207.013 192.739C193.035 216.639 171.493 214.9 166.41 215.975C164.248 209.568 180.083 196.174 180.389 189.419Z" fill="url(#paint3_linear)"/>
<path d="M55.3855 196.544C67.6472 216.226 74.8232 227.137 87.0863 246.819C95.5705 246.759 104.032 244.616 111.515 240.629C110.782 243.847 107.404 247.441 104.44 248.908C99.1137 251.546 93.8753 252.452 88.5472 255.09C90.679 262.523 90.9869 270.467 89.4377 278.04C86.5574 280.817 84.4537 272.914 84.297 269.443C83.5164 270.942 82.9339 271.971 81.9631 272.8C79.1149 273.985 76.8479 274.967 75.0723 273.782C72.7758 277.547 70.948 278.172 68.3141 277.297C69.1483 268.978 70.158 261.621 70.9922 253.302C71.2935 250.304 71.5774 247.171 70.474 244.366C69.1644 241.035 66.1395 238.737 63.298 236.554C48.792 225.402 35.5247 212.647 23.816 198.601C32.9349 195.003 43.1345 194.19 52.7114 196.299C53.1225 198.512 54.1951 194.633 55.3855 196.544Z" fill="#FFBEB6"/>
<path d="M82.5961 87.7659C72.7112 97.0689 68.224 110.539 61.5756 122.364C57.2277 130.096 55.5351 138.127 50.207 145.224C42.0254 156.118 33.8451 167.011 25.6635 177.905C22.49 182.131 19.2762 186.427 17.3734 191.352C16.2165 194.346 15.5697 197.508 14.9297 200.653C11.8432 215.781 8.6013 230.06 12.5703 244.984C14.8359 230.514 22.9037 218.495 34.4116 209.398C41.3894 203.88 50.5672 199.873 59.1198 202.349C56.4443 196.757 53.7689 191.165 51.0935 185.572C62.9428 180.04 66.6305 167.314 73.603 156.272C81.8797 143.166 82.2466 136.765 83.6553 128.339C85.6478 116.39 84.9421 85.5585 82.5961 87.7659Z" fill="url(#paint4_linear)"/>
<path d="M168.152 102.673C177.282 129.266 176.814 160.072 179.057 183.442C182.795 177.962 193.241 166.314 196.011 164.2C195.358 169.564 195.149 170.654 195.766 175.308C197.961 191.872 202.693 208.098 209.75 223.253C212.682 229.552 216.78 236.285 223.55 237.905C230.32 239.524 209.024 240.162 194.329 235.533C174.976 229.437 170.736 224.603 163.748 215.309C161.907 212.86 157.911 184.005 157.091 154.893C156.759 143.054 155.016 131.67 154.873 120.37C154.541 93.8128 152.527 81.3598 156.476 83.9536C158.287 85.1436 159.409 85.9057 161.522 88.3216C164.914 92.2057 166.48 97.8011 168.152 102.673Z" fill="#428DFC"/>
<path d="M165.408 101.801C165.316 101.747 165.296 101.675 165.347 101.583C165.4 101.49 165.473 101.47 165.565 101.521C165.657 101.572 165.677 101.647 165.627 101.739C165.576 101.833 165.482 101.78 165.408 101.801ZM157.045 88.1202C156.971 88.1403 156.879 88.0895 156.858 88.0159C156.838 87.9424 156.889 87.8501 156.963 87.8301C157.037 87.81 157.129 87.8608 157.149 87.9344C157.266 88.0587 157.138 88.171 157.045 88.1202ZM161.719 94.7451C161.646 94.7652 161.573 94.7839 161.48 94.7331C161.459 94.6595 161.439 94.5874 161.492 94.4938C161.565 94.4737 161.638 94.455 161.731 94.5058C161.844 94.6328 161.792 94.7251 161.719 94.7451ZM148.606 110.92C148.48 111.033 148.314 111.002 148.2 110.875C148.088 110.749 148.118 110.583 148.246 110.47C148.371 110.357 148.538 110.388 148.651 110.515C148.839 110.619 148.752 110.879 148.606 110.92ZM154.53 106.772C154.404 106.884 154.238 106.853 154.124 106.726C154.012 106.6 154.042 106.435 154.17 106.321C154.297 106.207 154.462 106.239 154.575 106.366C154.688 106.492 154.654 106.658 154.53 106.772ZM160.431 102.551C160.305 102.663 160.139 102.632 160.025 102.505C159.913 102.379 159.944 102.214 160.071 102.1C160.197 101.988 160.363 102.018 160.477 102.145C160.589 102.272 160.556 102.437 160.431 102.551ZM161.842 118.94C161.73 118.814 161.688 118.67 161.721 118.504C161.846 118.392 161.992 118.35 162.158 118.383C162.271 118.509 162.312 118.654 162.259 118.748C162.176 119.004 162.03 119.047 161.842 118.94ZM165.731 112.846C165.619 112.72 165.577 112.576 165.609 112.41C165.735 112.297 165.881 112.256 166.047 112.288C166.16 112.414 166.201 112.558 166.147 112.653C166.043 112.838 165.823 112.899 165.731 112.846ZM145.815 96.637C145.669 96.6758 145.483 96.5715 145.443 96.4271C145.403 96.2813 145.509 96.0955 145.653 96.0554C145.799 96.0166 145.985 96.1209 146.025 96.2653C146.067 96.411 145.96 96.5955 145.815 96.637ZM152.903 94.9898C152.757 95.0286 152.571 94.9243 152.531 94.7799C152.49 94.6341 152.596 94.4483 152.741 94.4082C152.887 94.3694 153.073 94.4737 153.113 94.6181C153.155 94.7625 153.049 94.9497 152.903 94.9898ZM159.92 93.3613C159.774 93.4001 159.587 93.2958 159.547 93.1514C159.507 93.0057 159.613 92.8198 159.757 92.7797C159.903 92.7409 160.09 92.8452 160.13 92.9896C160.19 93.2076 160.064 93.3212 159.92 93.3613ZM167.946 122.507C167.853 122.453 167.718 122.255 167.845 122.142C167.899 122.05 168.097 121.915 168.211 122.042C168.303 122.095 168.439 122.293 168.311 122.407C168.277 122.571 168.132 122.611 167.946 122.507ZM150.383 102.039C150.237 102.077 150.071 102.047 150.029 101.899C149.989 101.754 150.041 101.66 150.169 101.548C150.314 101.509 150.482 101.54 150.522 101.687C150.561 101.831 150.529 101.997 150.383 102.039ZM156.506 100.03C156.36 100.069 156.194 100.038 156.153 99.8913C156.111 99.7442 156.165 99.6519 156.292 99.5396C156.438 99.5009 156.604 99.5316 156.646 99.6787C156.684 99.8244 156.652 99.9902 156.506 100.03ZM162.61 97.9499C162.464 97.9887 162.298 97.958 162.256 97.8109C162.216 97.6651 162.268 97.5716 162.395 97.4592C162.541 97.4205 162.707 97.4512 162.749 97.5983C162.808 97.8149 162.754 97.9098 162.61 97.9499ZM160.074 112.295C159.948 112.407 159.782 112.376 159.668 112.249C159.555 112.124 159.586 111.958 159.713 111.844C159.839 111.732 160.005 111.763 160.119 111.89C160.232 112.015 160.221 112.253 160.074 112.295ZM164.966 108.118C164.841 108.23 164.674 108.199 164.582 108.146C164.47 108.02 164.5 107.855 164.628 107.741C164.754 107.629 164.92 107.659 165.033 107.786C165.124 107.838 165.091 108.004 164.966 108.118ZM151.888 89.0762C151.722 89.0454 151.629 88.9906 151.66 88.8248C151.691 88.659 151.818 88.5467 151.912 88.5975C152.078 88.6283 152.192 88.7553 152.16 88.9211C152.158 88.9224 152.034 89.0361 151.888 89.0762ZM158.294 89.5C158.128 89.4693 158.014 89.3422 158.046 89.1765C158.077 89.0107 158.204 88.8984 158.37 88.9291C158.536 88.9599 158.65 89.0869 158.598 89.1805C158.584 89.4185 158.461 89.5308 158.294 89.5C158.366 89.4786 158.294 89.5 158.294 89.5ZM162.215 126.208C162.089 126.32 161.923 126.289 161.809 126.162C161.695 126.035 161.727 125.871 161.854 125.757C161.98 125.645 162.146 125.676 162.26 125.803C162.371 125.928 162.339 126.094 162.215 126.208ZM167.88 121.425C167.754 121.538 167.588 121.507 167.474 121.38C167.362 121.254 167.393 121.088 167.52 120.975C167.646 120.862 167.812 120.893 167.926 121.02C168.019 121.074 168.007 121.313 167.88 121.425ZM152.298 96.4899C152.132 96.4592 152.018 96.3322 152.05 96.1664C152.081 96.0006 152.208 95.8883 152.374 95.919C152.54 95.9498 152.654 96.0768 152.622 96.2426C152.663 96.3883 152.464 96.522 152.298 96.4899ZM159.775 97.0862C159.609 97.0555 159.495 96.9285 159.527 96.7627C159.558 96.5969 159.685 96.4846 159.851 96.5153C160.017 96.5461 160.131 96.6731 160.099 96.8389C160.048 96.9338 159.942 97.1196 159.775 97.0862ZM157.798 111.747C157.652 111.785 157.466 111.681 157.426 111.537C157.386 111.391 157.492 111.205 157.636 111.165C157.782 111.126 157.969 111.23 158.009 111.375C158.05 111.521 157.946 111.706 157.798 111.747ZM164.871 109.478C164.725 109.516 164.539 109.412 164.499 109.268C164.459 109.122 164.565 108.936 164.709 108.896C164.855 108.857 165.041 108.962 165.082 109.106C165.123 109.25 165.091 109.416 164.871 109.478ZM158.114 116.835C157.969 116.874 157.782 116.77 157.742 116.625C157.702 116.48 157.808 116.294 157.952 116.254C158.098 116.215 158.266 116.246 158.325 116.464C158.365 116.609 158.259 116.795 158.114 116.835ZM165.106 114.274C164.96 114.312 164.774 114.208 164.733 114.064C164.693 113.918 164.725 113.752 164.944 113.692C165.09 113.653 165.276 113.757 165.39 113.882C165.357 114.048 165.25 114.235 165.106 114.274ZM159.409 101.422C159.243 101.391 159.129 101.264 159.089 101.117C159.12 100.952 159.247 100.839 159.395 100.798C159.561 100.829 159.674 100.956 159.715 101.103C159.755 101.248 159.554 101.382 159.409 101.422Z" fill="white"/>
<defs>
<linearGradient id="paint0_linear" x1="128.72" y1="65.9105" x2="109.487" y2="65.9105" gradientUnits="userSpaceOnUse">
<stop stop-color="#FFBEB6"/>
<stop offset="1" stop-color="#F2A19C"/>
</linearGradient>
<linearGradient id="paint1_linear" x1="169.194" y1="151.387" x2="73.7933" y2="151.387" gradientUnits="userSpaceOnUse">
<stop stop-color="#428DFC"/>
<stop offset="1" stop-color="#1D72D8"/>
</linearGradient>
<linearGradient id="paint2_linear" x1="126.061" y1="234.041" x2="0.000332131" y2="234.041" gradientUnits="userSpaceOnUse">
<stop stop-color="#2F80E9"/>
<stop offset="1" stop-color="#151A4F"/>
</linearGradient>
<linearGradient id="paint3_linear" x1="288.643" y1="159.544" x2="191.058" y2="159.544" gradientUnits="userSpaceOnUse">
<stop stop-color="#FFBEB6"/>
<stop offset="1" stop-color="#F2A19C"/>
</linearGradient>
<linearGradient id="paint4_linear" x1="34.4864" y1="171.883" x2="102.649" y2="143.036" gradientUnits="userSpaceOnUse">
<stop stop-color="#428DFC"/>
<stop offset="1" stop-color="#1D72D8"/>
</linearGradient>
</defs>
</svg>
