<svg width="278" height="462" viewBox="0 0 278 462" fill="none" xmlns="http://www.w3.org/2000/svg">
<path d="M112.22 461.633C174.198 461.633 224.44 411.39 224.44 349.413C224.44 287.435 174.198 237.192 112.22 237.192C50.2427 237.192 0 287.435 0 349.413C0 411.39 50.2427 461.633 112.22 461.633Z" fill="#EBF4FD"/>
<path d="M235.917 352.979L236.114 353.239C238.664 351.855 241.116 350.386 243.569 348.829L242.98 348.138L235.917 352.979Z" fill="#78A9EF"/>
<path d="M272.167 312.431C272.92 309.94 273.547 307.36 274.174 304.78L270.349 308.961L272.167 312.431Z" fill="#78A9EF"/>
<path d="M259.509 316.257L263.972 322.713L258.154 327.734L253.771 321.189L259.509 316.257Z" fill="#78A9EF"/>
<path d="M242.424 329.009L247.395 334.782L240.888 339.211L235.917 333.438L242.424 329.009Z" fill="#78A9EF"/>
<path d="M226.981 341.761L230.816 347.58L225.795 351.963L221.89 346.225L226.981 341.761Z" fill="#78A9EF"/>
<path d="M211.588 362.564L214.238 360.252L210.333 354.514L205.312 358.977L208.31 363.44C208.589 363.361 208.798 363.361 209.077 363.281C209.914 362.962 210.751 362.723 211.588 362.564Z" fill="#78A9EF"/>
<path d="M267.798 290.672L272.262 297.128L278 292.197V292.107L273.617 285.651L267.798 290.672Z" fill="#78A9EF"/>
<path d="M255.604 308.606L251.22 303.515L256.959 299.679L261.422 304.7L255.604 308.606Z" fill="#78A9EF"/>
<path d="M239.574 322.633L234.643 316.088L241.098 311.156L246.12 317.612L239.574 322.633Z" fill="#78A9EF"/>
<path d="M223.803 334.11L219.34 329.089L225.158 325.184L229.542 330.275L223.803 334.11Z" fill="#78A9EF"/>
<path d="M207.225 345.587L202.762 339.848L208.5 335.385L212.964 341.203L207.225 345.587Z" fill="#78A9EF"/>
<path d="M273.617 267.798L278 274.254L272.262 279.275L267.798 272.73L273.617 267.798Z" fill="#78A9EF"/>
<path d="M256.959 280.551L261.422 286.289L255.684 290.752L251.22 284.934L256.959 280.551Z" fill="#78A9EF"/>
<path d="M241.098 293.303L246.12 299.121L239.574 303.505L234.643 297.766L241.098 293.303Z" fill="#78A9EF"/>
<path d="M225.124 306.055L229.542 311.873L223.758 316.257L219.34 310.518L225.124 306.055Z" fill="#78A9EF"/>
<path d="M208.58 316.257L212.964 322.713L207.225 327.734L202.762 321.278L208.58 316.257Z" fill="#78A9EF"/>
<path d="M192.639 330.285L197.661 336.023L191.205 340.487L186.184 334.668L192.639 330.285Z" fill="#78A9EF"/>
<path d="M268.994 261.422L263.973 255.684L270.518 251.22L275.45 256.959L268.994 261.422Z" fill="#78A9EF"/>
<path d="M253.133 272.899L248.67 266.354L254.488 261.422L258.872 267.878L253.133 272.899Z" fill="#78A9EF"/>
<path d="M237.023 285.651L232.092 279.833L238.548 275.449L243.569 281.188L237.023 285.651Z" fill="#78A9EF"/>
<path d="M220.445 299.679L215.514 293.223L221.97 288.202L226.991 294.747L220.445 299.679Z" fill="#78A9EF"/>
<path d="M204.674 309.881L200.211 304.142L206.029 299.679L210.413 305.497L204.674 309.881Z" fill="#78A9EF"/>
<path d="M188.655 323.908L183.633 317.363L190.179 312.431L195.11 318.887L188.655 323.908Z" fill="#78A9EF"/>
<path d="M270.814 242.294L271.624 241.778C270.308 239.371 268.892 236.964 267.373 234.642L265.248 236.018L270.814 242.294Z" fill="#78A9EF"/>
<path d="M255.764 243.569L260.147 250.064L254.409 255.046L249.945 248.551L255.764 243.569Z" fill="#78A9EF"/>
<path d="M239.913 257.596L244.844 263.414L238.388 267.798L233.367 262.059L239.913 257.596Z" fill="#78A9EF"/>
<path d="M223.086 271.624L226.991 276.715L221.9 280.55L218.064 275.529L223.086 271.624Z" fill="#78A9EF"/>
<path d="M205.949 281.826L210.413 287.564L204.595 292.028L200.211 286.21L205.949 281.826Z" fill="#78A9EF"/>
<path d="M191.454 293.303L196.385 299.759L189.929 304.78L184.908 298.234L191.454 293.303Z" fill="#78A9EF"/>
<path d="M175.344 307.33L179.807 312.382L174.069 316.257L169.605 311.205L175.344 307.33Z" fill="#78A9EF"/>
<path d="M251.813 237.193L247.395 231.374L253.178 226.991L257.596 232.729L251.813 237.193Z" fill="#78A9EF"/>
<path d="M236.555 238.468L241.018 244.924L235.2 249.945L230.816 243.399L236.555 238.468Z" fill="#78A9EF"/>
<path d="M220.745 252.496L225.716 257.587L219.209 261.422L214.239 256.401L220.745 252.496Z" fill="#78A9EF"/>
<path d="M202.772 275.45L198.936 268.994L203.957 263.973L207.863 270.518L202.772 275.45Z" fill="#78A9EF"/>
<path d="M186.104 286.927L181.083 281.108L187.628 276.725L192.56 282.463L186.104 286.927Z" fill="#78A9EF"/>
<path d="M171.518 299.679L167.055 293.861L172.873 289.477L177.257 295.216L171.518 299.679Z" fill="#78A9EF"/>
<path d="M252.495 214.951C250.847 213.826 249.121 212.701 247.395 211.688L251.475 215.514L252.495 214.951Z" fill="#78A9EF"/>
<path d="M234.005 229.542L229.542 223.086L235.36 218.064L239.743 224.61L234.005 229.542Z" fill="#78A9EF"/>
<path d="M219.509 230.817L224.44 236.635L217.985 241.018L212.963 235.28L219.509 230.817Z" fill="#78A9EF"/>
<path d="M202.772 253.771L198.936 247.315L203.957 242.293L207.863 248.749L202.772 253.771Z" fill="#78A9EF"/>
<path d="M186.104 266.523L181.083 260.705L187.628 256.321L192.56 262.06L186.104 266.523Z" fill="#78A9EF"/>
<path d="M169.526 279.275L164.505 272.781L171.05 267.798L175.982 274.293L169.526 279.275Z" fill="#78A9EF"/>
<path d="M155.02 280.551L159.404 286.369L153.665 290.752L149.202 285.014L155.02 280.551Z" fill="#78A9EF"/>
<path d="M232.172 211.688L237.193 207.416L235.17 204.593C234.194 203.982 233.218 203.372 232.241 202.762L228.266 206.119L232.172 211.688Z" fill="#78A9EF"/>
<path d="M216.072 224.44L211.688 217.985L217.427 212.963L221.89 219.509L216.072 224.44Z" fill="#78A9EF"/>
<path d="M200.849 235.917L196.385 230.179L202.203 225.716L206.587 231.534L200.849 235.917Z" fill="#78A9EF"/>
<path d="M183.713 249.945L179.807 243.489L184.898 238.468L188.734 244.924L183.713 249.945Z" fill="#78A9EF"/>
<path d="M167.613 261.422L163.229 255.604L168.968 251.22L173.431 256.959L167.613 261.422Z" fill="#78A9EF"/>
<path d="M151.762 274.174L147.927 267.629L152.948 262.697L156.853 269.153L151.762 274.174Z" fill="#78A9EF"/>
<path d="M216.658 205.312L223.165 201.248L218.827 196.676C218.375 196.603 218.014 196.458 217.652 196.385L211.688 200.087L216.658 205.312Z" fill="#78A9EF"/>
<path d="M200.849 216.789L196.385 210.971L202.124 206.587L206.587 212.325L200.849 216.789Z" fill="#78A9EF"/>
<path d="M184.898 220.615L188.734 226.353L183.713 230.816L179.807 224.998L184.898 220.615Z" fill="#78A9EF"/>
<path d="M169.685 233.367L174.707 238.388L168.251 242.294L163.229 237.203L169.685 233.367Z" fill="#78A9EF"/>
<path d="M153.665 243.569L158.129 250.114L152.31 255.046L147.927 248.59L153.665 243.569Z" fill="#78A9EF"/>
<path d="M137.894 257.596L142.826 263.414L136.37 267.798L131.349 262.059L137.894 257.596Z" fill="#78A9EF"/>
<path d="M198.298 200.211L204.037 195.31L201.486 191.722C199.972 191.547 198.378 191.372 196.864 191.284L193.835 193.822L198.298 200.211Z" fill="#78A9EF"/>
<path d="M181.72 212.964L177.257 207.225L183.075 202.762L187.459 208.5L181.72 212.964Z" fill="#78A9EF"/>
<path d="M166.417 225.716L161.954 219.17L167.772 214.239L172.156 220.694L166.417 225.716Z" fill="#78A9EF"/>
<path d="M149.76 237.193L145.376 231.374L151.115 226.991L155.578 232.729L149.76 237.193Z" fill="#78A9EF"/>
<path d="M133.182 249.945L128.798 243.489L134.537 238.468L139 245.013L133.182 249.945Z" fill="#78A9EF"/>
<path d="M184.908 191.284C183.609 191.375 182.382 191.557 181.083 191.831L182.31 193.835L184.908 191.284Z" fill="#78A9EF"/>
<path d="M166.338 206.587L161.954 201.566L167.693 197.661L172.156 202.752L166.338 206.587Z" fill="#78A9EF"/>
<path d="M149.76 218.064L145.376 213.043L151.114 209.137L155.578 214.228L149.76 218.064Z" fill="#78A9EF"/>
<path d="M133.979 232.091L130.073 226.353L135.164 221.89L139 227.628L133.979 232.091Z" fill="#78A9EF"/>
<path d="M123.697 238.428L119.766 233.367L118.713 234.14C117.801 235.757 116.888 237.374 116.046 239.061L118.573 242.294L123.697 238.428Z" fill="#78A9EF"/>
<path d="M84.2325 344.312L82.8901 355.789L87.9911 353.963L84.2325 344.312Z" fill="#A1C3FC"/>
<path d="M72.9274 313.707L67.5874 362.165L75.8764 358.984L79.0645 330.349L72.9274 313.707Z" fill="#A1C3FC"/>
<path d="M61.0411 281.826L51.0093 367.266L59.9359 364.108L67.5873 298.266L61.0411 281.826Z" fill="#A1C3FC"/>
<path d="M44.7504 283.73L34.4312 373.642L43.2403 370.382L53.5596 280.551L44.7504 283.73Z" fill="#A1C3FC"/>
<path d="M29.3472 291.381L20.4038 381.293L28.0384 378.033L36.9818 288.202L29.3472 291.381Z" fill="#A1C3FC"/>
<path d="M13.2414 296.552L5.10107 360.895L12.2238 377.468L22.9543 293.303L13.2414 296.552Z" fill="#A1C3FC"/>
<path d="M118.597 89.6026L128.053 91.8166L136.45 87.7429L126.237 85.4404L118.597 89.6026Z" fill="#428DFC"/>
<path d="M208.536 192.628C202.067 200.122 195.514 207.566 188.106 214.133C185.919 215.931 188.977 230.183 189.411 238.207C189.617 242.013 189.891 246.025 192.016 249.189C196.752 244.827 204.538 245.164 209.182 240.703C209.594 240.308 209.986 239.86 210.151 239.313C210.677 237.562 208.506 236.008 206.695 236.267C204.884 236.527 203.441 237.843 201.937 238.884C200.434 239.924 198.451 240.739 196.822 239.906C197.998 236.948 198.139 233.589 197.215 230.542C196.809 229.203 196.198 227.83 196.485 226.461C196.972 224.143 199.619 223.147 201.714 222.045C209.432 217.989 213.082 208.257 221.073 204.771C215.708 202.636 210.657 190.172 208.536 192.628Z" fill="#FFBEB6"/>
<path d="M81.1233 229.948C78.9169 228.849 76.5419 227.579 75.5673 225.315C74.5926 223.05 76.1526 219.708 78.5961 220.026C81.8459 220.451 82.3202 226.127 85.5886 226.377C84.3781 229.702 83.1663 233.027 81.9557 236.352C75.3738 235.156 69.5769 230.314 67.2269 224.05C66.9461 223.3 66.7077 222.494 66.86 221.707C67.2868 219.492 70.5304 219.007 72.3811 220.297C74.2307 221.588 75.0918 223.838 76.1488 225.831C77.2046 227.827 78.8694 229.855 81.1233 229.948Z" fill="#F2A19C"/>
<path d="M96.4676 221.64C98.6728 219.151 100.967 216.444 101.398 213.146C101.697 210.866 100.869 208.631 100.194 206.433C97.9365 199.08 95.3257 199.15 91.281 195.751C86.3389 202.048 85.4216 209.397 89.5051 216.28C86.1991 221.842 82.8932 227.403 79.5873 232.966C76.3787 227.591 69.2139 226.462 62.9802 225.901C61.6661 225.782 60.2583 225.683 59.1089 226.331C57.9595 226.98 57.328 228.69 58.2291 229.654C64.7748 232.744 71.3218 235.834 77.8675 238.926C79.7183 239.8 81.8361 240.687 83.7393 239.937C86.0219 239.037 86.8256 236.306 87.7454 234.03C89.6448 229.322 93.1005 225.44 96.4676 221.64Z" fill="#FFBEB6"/>
<path d="M114.471 73.9478C109.69 74.9637 90.2354 73.4598 85.4543 74.477C80.6221 75.5042 75.5739 78.2213 80.4623 86.1256C81.5705 87.9179 87.526 88.512 87.7494 90.6076C92.1186 131.554 106.207 171.948 102.142 212.928C107.897 212.562 113.401 215.043 119.044 216.226C123.808 217.225 128.711 217.297 133.579 217.342C150.278 217.497 166.979 217.368 183.673 216.957C189.211 175.373 194.756 133.727 196.717 91.822C196.921 87.4574 198.55 78.099 196.109 74.4757C193.275 70.2683 185.501 72.812 181.243 72.8419C161.402 72.9855 141.392 79.5905 122.047 75.1784C119.297 74.5519 115.386 74.2548 114.471 73.9478Z" fill="url(#paint0_linear)"/>
<path d="M105.754 407.216C108.87 395.461 103.239 382.931 107.172 371.335C109.455 364.606 114.771 358.814 117.9 352.309C121.886 344.023 122.179 334.934 122.374 326.053C123.185 288.962 123.129 251.858 122.203 214.768C142.635 218.372 164.155 217.928 184.327 213.482C190.624 220.743 189.458 230.455 187.863 239.21C174.821 310.772 147.971 387.353 136.45 459.083C131.382 460.209 110.945 463.546 96.2801 460.358C98.3272 453.967 93.2316 443.747 93.4052 437.149C93.6833 426.58 103.015 417.555 105.754 407.216Z" fill="#2D358B"/>
<path d="M87.1232 404.375C86.3694 391.612 93.0374 379.756 98.9891 368.441C109.612 348.249 118.589 327.189 125.797 305.541C129.305 295.005 132.524 284.079 139.261 275.253C145.051 267.666 147.569 266.246 152.949 258.363C155.682 254.359 161.934 238.783 163.869 234.337C167.897 225.08 173.776 223.313 177.805 214.055C155.173 218.803 131.853 217.875 109.893 210.623C108.284 210.093 102.717 206.879 102.717 206.879C102.717 206.879 100.452 211.941 99.512 214.014C56.6147 308.604 52.0271 331.745 39.5322 434.853C46.8523 441.047 61.1616 451.315 75.2386 455.257C81.9956 436.675 76.1557 452.526 84.3912 422.311C86.6201 414.132 87.4739 410.325 87.1232 404.375Z" fill="#23286B"/>
<path d="M155.096 83.1036C147.06 83.0312 139.027 82.5232 131.046 81.5821C131.053 71.3838 131.244 61.1867 131.621 50.9958C138.036 51.8283 144.451 52.6608 150.867 53.4933C152.816 53.7467 154.884 53.9826 156.672 53.1663C156.034 63.1387 155.51 73.1187 155.096 83.1036Z" fill="#F2A19C"/>
<path d="M157.279 55.8275C152.607 60.0524 145.445 60.1035 139.362 58.4635C128.759 55.6041 119.116 47.6623 116.369 37.0297C113.622 26.397 119.384 13.6325 129.893 10.4511C132.422 9.68599 135.086 9.46632 137.728 9.45509C143.383 9.43012 149.041 10.345 154.401 12.1498C156.482 17.4605 164.077 35.6218 164.077 38.2815C164.078 49.5145 160.668 52.7634 157.279 55.8275Z" fill="#FFBEB6"/>
<path opacity="0.86" d="M116.157 228.897C115.981 229.023 115.931 229.325 116.057 229.502C116.183 229.678 116.485 229.729 116.661 229.603C116.837 229.477 116.887 229.175 116.761 228.998C116.636 228.819 116.421 228.707 116.157 228.897ZM84.8631 256.681C84.5611 256.631 84.3851 256.757 84.334 257.061C84.2204 257.276 84.4088 257.539 84.6235 257.653C84.9255 257.703 85.1015 257.577 85.1526 257.274C85.2038 256.972 85.0765 256.796 84.8631 256.681ZM95.34 259.034C95.038 258.984 94.862 259.11 94.8109 259.413C94.7609 259.715 94.887 259.893 95.189 259.942C95.4037 260.056 95.667 259.866 95.7182 259.563C95.6795 259.322 95.491 259.058 95.34 259.034ZM98.2516 238.143C98.138 238.359 98.1767 238.596 98.3901 238.71C98.6048 238.823 98.8419 238.784 98.9567 238.57C99.0703 238.354 99.0316 238.117 98.8182 238.003C98.6921 237.827 98.3651 237.928 98.2516 238.143ZM107.021 244.252C106.908 244.468 106.946 244.705 107.16 244.819C107.374 244.933 107.612 244.894 107.726 244.679C107.84 244.463 107.801 244.226 107.588 244.113C107.374 243.999 107.132 244.038 107.021 244.252ZM89.2648 277.924C89.0252 277.961 88.9116 278.177 88.9515 278.416C88.989 278.655 89.2036 278.769 89.4432 278.729C89.6829 278.692 89.7939 278.477 89.8201 278.325C89.7178 278 89.5044 277.887 89.2648 277.924ZM104.55 229.625C104.374 229.751 104.413 229.99 104.538 230.165C104.664 230.341 104.903 230.302 105.078 230.177C105.254 230.051 105.215 229.812 105.091 229.637C104.877 229.522 104.727 229.497 104.55 229.625ZM111.821 235.874C111.645 236 111.684 236.24 111.809 236.414C111.935 236.59 112.174 236.552 112.349 236.427C112.525 236.301 112.486 236.061 112.361 235.886C112.173 235.622 111.935 235.659 111.821 235.874ZM92.265 267.773C92.0253 267.811 91.9143 268.025 91.8881 268.177C91.9255 268.417 92.0515 268.592 92.2912 268.554C92.5308 268.517 92.7055 268.391 92.6681 268.15C92.6918 267.999 92.5657 267.823 92.265 267.773ZM127.767 229.102C127.591 229.228 127.48 229.442 127.603 229.618C127.729 229.794 127.944 229.908 128.119 229.782C128.295 229.656 128.407 229.441 128.282 229.265C128.156 229.09 127.94 228.977 127.767 229.102ZM99.6968 248.173C99.4821 248.059 99.2188 248.249 99.1926 248.4C99.079 248.616 99.205 248.791 99.4185 248.904C99.6331 249.018 99.8091 248.89 99.9227 248.677C100.037 248.462 99.8478 248.198 99.6968 248.173ZM108.752 251.143C108.538 251.03 108.362 251.157 108.248 251.37C108.134 251.586 108.26 251.761 108.474 251.875C108.689 251.988 108.865 251.861 108.978 251.647C109.093 251.433 108.967 251.257 108.752 251.143ZM122.893 228.999C122.805 229.063 122.843 229.301 122.906 229.39C122.969 229.478 123.208 229.44 123.296 229.376C123.385 229.312 123.346 229.074 123.284 228.986C123.157 228.808 123.07 228.872 122.893 228.999ZM114.397 254.562C114.245 254.537 114.221 254.688 114.196 254.84C114.171 254.992 114.386 255.105 114.473 255.041C114.625 255.066 114.738 254.851 114.674 254.763C114.698 254.613 114.547 254.587 114.397 254.562ZM135.754 223.504C135.665 223.567 135.553 223.782 135.617 223.869C135.68 223.958 135.894 224.07 135.982 224.007C136.071 223.943 136.183 223.728 136.119 223.641C135.992 223.466 135.841 223.441 135.754 223.504ZM94.5151 227.89C94.3004 227.776 94.0371 227.966 93.9235 228.18C93.81 228.396 93.9984 228.658 94.2131 228.773C94.4277 228.887 94.6911 228.697 94.8046 228.483C94.9182 228.267 94.7297 228.002 94.5151 227.89ZM105.056 231.261C104.841 231.147 104.578 231.337 104.464 231.552C104.351 231.768 104.539 232.03 104.754 232.144C104.968 232.258 105.232 232.068 105.345 231.854C105.396 231.55 105.27 231.373 105.056 231.261ZM115.534 234.543C115.319 234.43 115.056 234.619 114.942 234.834C114.829 235.05 115.017 235.312 115.232 235.427C115.446 235.541 115.71 235.351 115.823 235.136C115.937 234.922 115.748 234.657 115.534 234.543ZM126.526 224.391C126.413 224.607 126.363 224.908 126.577 225.02C126.792 225.134 127.093 225.184 127.206 224.969C127.32 224.753 127.37 224.452 127.155 224.34C126.943 224.226 126.64 224.177 126.526 224.391ZM96.7914 250.257C96.5518 250.295 96.3509 250.573 96.3896 250.812C96.427 251.052 96.7041 251.253 96.9437 251.214C97.1833 251.177 97.4479 250.987 97.4092 250.748C97.3069 250.421 97.0934 250.308 96.7914 250.257ZM107.819 249.28C107.579 249.317 107.315 249.507 107.417 249.835C107.454 250.075 107.669 250.188 107.884 250.301C108.123 250.263 108.388 250.074 108.349 249.834C108.335 249.442 108.121 249.33 107.819 249.28ZM134.141 221.995C134.028 222.211 133.978 222.512 134.193 222.624C134.407 222.737 134.708 222.787 134.822 222.573C134.998 222.447 135.047 222.145 134.77 221.944C134.643 221.768 134.342 221.718 134.141 221.995ZM94.3291 243.092C94.0895 243.129 93.8249 243.319 93.8636 243.558C93.9023 243.798 94.0908 244.063 94.3304 244.024C94.57 243.987 94.7447 243.861 94.7959 243.557C94.7572 243.318 94.5688 243.053 94.3291 243.092ZM105.345 242.654C105.106 242.691 104.841 242.881 104.88 243.12C104.917 243.36 105.044 243.537 105.346 243.586C105.586 243.548 105.851 243.359 105.812 243.119C105.71 242.792 105.584 242.616 105.345 242.654ZM116.296 242.132C116.057 242.169 115.792 242.359 115.831 242.599C115.868 242.838 116.058 243.103 116.298 243.064C116.537 243.027 116.802 242.837 116.763 242.597C116.814 242.294 116.535 242.092 116.296 242.132ZM114.139 225.144C113.924 225.03 113.661 225.22 113.547 225.435C113.433 225.651 113.622 225.913 113.837 226.027C114.051 226.141 114.315 225.951 114.428 225.737C114.479 225.433 114.353 225.257 114.139 225.144ZM124.542 228.881C124.327 228.767 124.064 228.957 123.95 229.171C123.837 229.387 124.025 229.649 124.24 229.764C124.454 229.878 124.718 229.688 124.831 229.474C124.883 229.17 124.758 228.994 124.542 228.881ZM113.064 246.182C112.824 246.219 112.799 246.372 112.838 246.61C112.876 246.85 113.028 246.875 113.266 246.837C113.506 246.8 113.531 246.648 113.492 246.409C113.369 246.232 113.305 246.143 113.064 246.182ZM116.547 228.883C116.395 228.858 116.219 228.984 116.196 229.135C116.172 229.288 116.298 229.464 116.449 229.486C116.601 229.511 116.777 229.385 116.799 229.234C116.824 229.084 116.698 228.909 116.547 228.883ZM124.733 230.078C124.581 230.053 124.405 230.179 124.292 230.393C124.267 230.546 124.393 230.722 124.544 230.744C124.697 230.769 124.873 230.643 124.895 230.492C125.097 230.216 124.971 230.04 124.733 230.078Z" fill="white"/>
<path d="M166.951 34.5635C164.792 34.5635 162.095 31.764 160.393 27.7538C158.381 23.0209 158.564 18.7287 160.816 17.7714C161.102 17.649 161.412 17.5879 161.735 17.5879C163.894 17.5879 166.591 20.3874 168.293 24.3963C169.203 26.5381 169.695 28.7173 169.676 30.5333C169.656 32.5278 169.014 33.8932 167.87 34.38C167.584 34.5023 167.276 34.5635 166.951 34.5635ZM161.735 18.8373C161.579 18.8373 161.434 18.8647 161.303 18.9209C159.978 19.485 159.749 23.0509 161.54 27.267C163.327 31.4744 166.072 33.7859 167.382 33.2317C168.032 32.9547 168.413 31.9674 168.428 30.5208C168.445 28.8733 167.989 26.8726 167.145 24.8844C165.536 21.1001 163.131 18.8373 161.735 18.8373Z" fill="#F99F1B"/>
<path d="M156.558 18.2522C157.568 21.1965 159.002 23.8762 160.758 26.0991C161.551 27.1025 162.407 28.0124 163.202 29.0109C163.793 29.7548 164.379 30.616 164.517 31.6906C164.713 33.2083 163.959 34.6599 163.093 35.6658C161.326 37.714 158.904 38.7 156.59 38.3131C156.113 33.9722 155.638 29.6325 155.161 25.2915C154.895 22.8689 154.672 20.1817 155.703 18.1648C155.987 18.1935 156.273 18.2235 156.558 18.2522Z" fill="#FFBEB6"/>
<path d="M154.219 25.031C154.13 25.031 154.04 25.0122 153.955 24.9723C153.643 24.8263 153.509 24.4543 153.655 24.1423C154.277 22.8143 155.329 21.9331 156.619 21.6635C157.809 21.4114 159.067 21.7422 159.981 22.5422C160.24 22.7694 160.266 23.1638 160.038 23.4234C159.811 23.683 159.417 23.708 159.157 23.4808C158.538 22.9379 157.684 22.7157 156.873 22.8854C155.977 23.0727 155.236 23.708 154.784 24.6715C154.678 24.8974 154.453 25.031 154.219 25.031Z" fill="#F99F1B"/>
<path d="M148.663 40.0601C143.689 40.0601 139.642 36.0125 139.642 31.0375C139.642 26.0625 143.689 22.0149 148.663 22.0149C153.638 22.0149 157.685 26.0625 157.685 31.0375C157.685 36.0125 153.638 40.0601 148.663 40.0601ZM148.663 23.263C144.376 23.263 140.89 26.7502 140.89 31.0375C140.89 35.3248 144.376 38.812 148.663 38.812C152.95 38.812 156.437 35.3248 156.437 31.0375C156.437 26.7502 152.95 23.263 148.663 23.263Z" fill="#F99F1B"/>
<path d="M127.188 51.4028C123.024 46.6313 118.573 40.8825 119.762 34.6619C120.129 32.7435 121.159 30.8214 122.927 29.9939C125.883 28.611 129.207 30.7628 131.756 32.8022C129.412 29.2426 129.264 24.3549 131.388 20.6593C133.512 16.9636 137.812 14.6334 142.067 14.8693C147.32 15.1601 151.93 18.9643 157.189 19.0754C156.296 13.1369 160.384 11.3097 162.31 5.62076C159.814 0.940335 148.463 -0.0756293 147.022 0.00424997C135.79 0.628307 131.242 3.15324 121.126 4.37265C115.927 4.9992 112.632 3.97699 107.71 2.18845C105.859 14.3214 110.274 26.2121 114.474 37.7435C115.605 40.8475 116.904 42.6485 118.942 45.2484C120.98 47.8494 126.118 54.09 127.188 51.4028Z" fill="url(#paint1_linear)"/>
<path d="M74.0918 78.4094C59.9033 87.457 53.2153 104.274 43.7768 118.205C36.8841 128.379 28.233 137.313 21.8183 147.793C19.5008 151.579 17.4329 155.776 17.5764 160.212C17.8397 168.29 26.8752 174.802 34.6215 172.496C39.4612 171.054 43.0717 166.993 45.7324 162.701C48.3931 158.408 50.3949 153.694 53.4924 149.705C57.4099 144.66 62.8449 141.065 67.7395 136.961C78.9365 127.571 87.5539 115.139 92.4173 101.358C94.5726 95.2514 95.9741 88.4068 93.5655 82.3946C92.481 79.6862 90.8074 76.1153 88.1604 74.8909C83.7276 72.8428 78.2077 75.7846 74.0918 78.4094Z" fill="url(#paint2_linear)"/>
<path d="M204.068 135.304C193.359 128.666 187.313 116.634 182.955 104.812C179.565 95.6124 177.168 84.3769 183.327 76.7484C184.942 74.749 187.156 73.1264 189.69 72.6971C195.101 71.7797 199.78 76.2542 203.439 80.3455C221.88 100.962 240.367 121.634 256.357 144.206C257.543 145.88 258.748 147.645 259.049 149.674C259.336 151.605 258.763 153.571 257.927 155.336C255.097 161.311 248.149 165.745 241.832 163.796C236.876 162.267 233.756 157.549 230.423 153.575C225.985 148.287 220.52 143.862 214.422 140.623C210.994 138.801 207.367 137.349 204.068 135.304Z" fill="#D6D7D8"/>
<path d="M19.188 162.428C20.3137 160.137 23.3139 159.016 26.0994 158.151C31.0676 156.608 36.3105 155.242 41.7143 155.676C46.6226 156.07 51.1616 160.194 54.671 163.508C65.5834 173.811 91.8836 195.883 96.8943 199.495C91.0899 201.946 86.9191 205.406 83.9077 210.213C69.8665 196.399 44.2714 194.988 29.142 181.989C24.5806 178.07 21.1923 173.214 19.4064 168.037C18.7662 166.18 18.3394 164.156 19.188 162.428Z" fill="url(#paint3_linear)"/>
<path d="M260.089 159.702C260.576 156.873 260.945 153.69 259.249 151.372C257.311 148.725 253.478 148.356 250.245 148.912C242.743 150.203 236.283 155.07 231.254 160.784C226.223 166.498 222.352 173.119 217.885 179.285C212.173 187.169 207.144 195.99 199.646 202.2C206.039 205.012 209.907 208.054 213.727 213.901C225.128 200.392 244.808 194.986 253.813 179.774C257.404 173.706 258.896 166.652 260.089 159.702Z" fill="url(#paint4_linear)"/>
<path d="M126.12 52.1146C125.995 52.1146 125.87 52.0771 125.76 52.001C124.923 51.4106 124.18 50.9101 123.495 50.4483C120.547 48.4601 118.599 47.1471 114.715 42.5315C104.664 30.5821 101.372 17.3608 104.649 2.11138C104.721 1.77439 105.052 1.55597 105.39 1.63211C105.727 1.7045 105.942 2.03649 105.87 2.37349C102.678 17.221 105.885 30.0928 115.671 41.7278C119.441 46.2097 121.23 47.4154 124.193 49.4124C124.884 49.8792 125.633 50.3834 126.479 50.98C126.761 51.1785 126.828 51.5679 126.63 51.85C126.509 52.0222 126.315 52.1146 126.12 52.1146Z" fill="#428DFC"/>
<path d="M131.216 121.073H98.7681V137.714H131.216V121.073Z" fill="#EEEEEE"/>
<path d="M188.623 121.073H156.175V137.714H188.623V121.073Z" fill="#EEEEEE"/>
<path d="M143.522 107.048C146.268 105.354 149.411 107.099 152.666 106.197C153.599 126.314 169.843 146.703 166.676 166.591C166.048 170.537 164.678 174.41 164.823 178.401C165.017 183.788 167.916 188.639 169.81 193.686C176.012 210.216 170.454 230.438 156.673 241.476C152.791 231.999 146.839 223.376 139.355 216.384C145.999 205.211 147.151 190.937 142.384 178.843C141.637 176.95 140.739 175.013 140.887 172.984C141.117 169.87 143.687 167.523 145.198 164.792C150 156.111 143.699 145.829 140.889 136.315C138.047 126.693 139.008 116.005 143.522 107.048Z" fill="#F99F1B"/>
<path d="M153.346 104.795C153.205 105.379 153.058 106.819 152.496 107.038C151.353 107.481 146.098 107.543 143.236 107.712C140.038 100.135 137.935 93.1664 136.441 85.1622C143.543 86.6524 150.205 86.8696 157.211 84.98C155.737 91.7448 154.976 98.0652 153.346 104.795Z" fill="#F99F1B"/>
<path d="M156.034 63.5933C162.183 67.0855 170.316 71.3391 177.184 73.0203C174.267 83.0526 171.761 90.9057 168.846 100.938C161.72 94.6501 150.646 87.1676 145.427 83.1262C149.247 76.7371 150.699 75.7075 154.519 69.3184C155.069 68.4135 155.865 65.4455 156.034 63.5933Z" fill="#EEEEEE"/>
<path d="M131.113 64.9392C124.964 68.4314 117.271 72.182 110.403 73.8632C113.32 83.8955 119.089 90.9037 122.006 100.936C129.132 94.648 140.205 87.1656 145.425 83.1242C139.846 78.6348 136.616 76.8837 132.796 70.4946C132.246 69.5909 131.281 66.7914 131.113 64.9392Z" fill="#EEEEEE"/>
<defs>
<linearGradient id="paint0_linear" x1="105.069" y1="215.351" x2="143.769" y2="115.489" gradientUnits="userSpaceOnUse">
<stop stop-color="#EEEEEE"/>
<stop offset="1" stop-color="#D6D7D8"/>
</linearGradient>
<linearGradient id="paint1_linear" x1="107.276" y1="26.0312" x2="162.31" y2="26.0312" gradientUnits="userSpaceOnUse">
<stop stop-color="#428DFC"/>
<stop offset="1" stop-color="#1D72D8"/>
</linearGradient>
<linearGradient id="paint2_linear" x1="17.5687" y1="123.586" x2="94.8281" y2="123.586" gradientUnits="userSpaceOnUse">
<stop stop-color="#EEEEEE"/>
<stop offset="1" stop-color="#D6D7D8"/>
</linearGradient>
<linearGradient id="paint3_linear" x1="58.8927" y1="159.665" x2="56.3962" y2="210.838" gradientUnits="userSpaceOnUse">
<stop stop-color="#EEEEEE"/>
<stop offset="1" stop-color="#D6D7D8"/>
</linearGradient>
<linearGradient id="paint4_linear" x1="199.647" y1="181.296" x2="260.497" y2="181.296" gradientUnits="userSpaceOnUse">
<stop stop-color="#EEEEEE"/>
<stop offset="1" stop-color="#D6D7D8"/>
</linearGradient>
</defs>
</svg>
