<svg width="263" height="438" viewBox="0 0 263 438" fill="none" xmlns="http://www.w3.org/2000/svg">
<path d="M105.958 437.075C164.476 437.075 211.915 389.636 211.915 331.118C211.915 272.599 164.476 225.16 105.958 225.16C47.4388 225.16 0 272.599 0 331.118C0 389.636 47.4388 437.075 105.958 437.075Z" fill="#EBF4FD"/>
<path d="M222.752 334.485L222.937 334.73C225.345 333.423 227.661 332.036 229.976 330.566L229.421 329.913L222.752 334.485Z" fill="#78A9EF"/>
<path d="M256.979 296.199C257.689 293.847 258.281 291.411 258.873 288.975L255.261 292.923L256.979 296.199Z" fill="#78A9EF"/>
<path d="M245.027 299.812L249.241 305.907L243.747 310.648L239.608 304.468L245.027 299.812Z" fill="#78A9EF"/>
<path d="M228.896 311.853L233.589 317.303L227.445 321.485L222.752 316.034L228.896 311.853Z" fill="#78A9EF"/>
<path d="M214.314 323.893L217.935 329.387L213.194 333.526L209.507 328.107L214.314 323.893Z" fill="#78A9EF"/>
<path d="M199.78 343.534L202.282 341.352L198.595 335.934L193.854 340.148L196.685 344.362C196.949 344.287 197.146 344.287 197.41 344.212C198.2 343.911 198.99 343.685 199.78 343.534Z" fill="#78A9EF"/>
<path d="M252.854 275.655L257.068 281.751L262.486 277.095V277.01L258.347 270.914L252.854 275.655Z" fill="#78A9EF"/>
<path d="M241.34 292.587L237.201 287.781L242.619 284.159L246.833 288.9L241.34 292.587Z" fill="#78A9EF"/>
<path d="M226.204 305.832L221.548 299.652L227.643 294.996L232.384 301.091L226.204 305.832Z" fill="#78A9EF"/>
<path d="M211.313 316.669L207.099 311.928L212.593 308.24L216.732 313.047L211.313 316.669Z" fill="#78A9EF"/>
<path d="M195.661 327.505L191.446 322.087L196.865 317.873L201.079 323.366L195.661 327.505Z" fill="#78A9EF"/>
<path d="M258.347 254.057L262.486 260.153L257.068 264.894L252.854 258.714L258.347 254.057Z" fill="#78A9EF"/>
<path d="M242.619 266.098L246.833 271.516L241.415 275.73L237.201 270.237L242.619 266.098Z" fill="#78A9EF"/>
<path d="M227.643 278.139L232.384 283.632L226.204 287.771L221.548 282.353L227.643 278.139Z" fill="#78A9EF"/>
<path d="M212.56 290.179L216.732 295.673L211.271 299.812L207.099 294.393L212.56 290.179Z" fill="#78A9EF"/>
<path d="M196.94 299.812L201.079 305.907L195.661 310.648L191.446 304.553L196.94 299.812Z" fill="#78A9EF"/>
<path d="M181.889 313.056L186.63 318.475L180.534 322.689L175.793 317.195L181.889 313.056Z" fill="#78A9EF"/>
<path d="M253.982 248.037L249.241 242.619L255.421 238.405L260.078 243.823L253.982 248.037Z" fill="#78A9EF"/>
<path d="M239.007 258.874L234.792 252.693L240.286 248.037L244.425 254.133L239.007 258.874Z" fill="#78A9EF"/>
<path d="M223.796 270.914L219.14 265.421L225.235 261.282L229.976 266.7L223.796 270.914Z" fill="#78A9EF"/>
<path d="M208.143 284.159L203.487 278.063L209.582 273.322L214.323 279.503L208.143 284.159Z" fill="#78A9EF"/>
<path d="M193.252 293.791L189.038 288.373L194.532 284.159L198.671 289.652L193.252 293.791Z" fill="#78A9EF"/>
<path d="M178.126 307.036L173.385 300.856L179.565 296.2L184.222 302.295L178.126 307.036Z" fill="#78A9EF"/>
<path d="M255.701 229.976L256.466 229.489C255.223 227.216 253.886 224.943 252.452 222.752L250.445 224.05L255.701 229.976Z" fill="#78A9EF"/>
<path d="M241.49 231.18L245.629 237.313L240.211 242.017L235.997 235.884L241.49 231.18Z" fill="#78A9EF"/>
<path d="M226.524 244.425L231.18 249.918L225.085 254.057L220.344 248.639L226.524 244.425Z" fill="#78A9EF"/>
<path d="M210.636 257.669L214.323 262.476L209.517 266.098L205.895 261.357L210.636 257.669Z" fill="#78A9EF"/>
<path d="M194.456 267.302L198.671 272.72L193.177 276.935L189.038 271.441L194.456 267.302Z" fill="#78A9EF"/>
<path d="M180.77 278.139L185.426 284.234L179.33 288.975L174.589 282.795L180.77 278.139Z" fill="#78A9EF"/>
<path d="M165.559 291.383L169.773 296.153L164.355 299.812L160.141 295.042L165.559 291.383Z" fill="#78A9EF"/>
<path d="M237.76 225.16L233.588 219.666L239.049 215.527L243.221 220.946L237.76 225.16Z" fill="#78A9EF"/>
<path d="M223.354 226.364L227.568 232.46L222.075 237.201L217.936 231.02L223.354 226.364Z" fill="#78A9EF"/>
<path d="M208.426 239.609L213.119 244.415L206.976 248.037L202.283 243.296L208.426 239.609Z" fill="#78A9EF"/>
<path d="M191.456 261.282L187.834 255.186L192.575 250.445L196.262 256.625L191.456 261.282Z" fill="#78A9EF"/>
<path d="M175.718 272.118L170.977 266.625L177.157 262.486L181.814 267.904L175.718 272.118Z" fill="#78A9EF"/>
<path d="M161.947 284.159L157.732 278.665L163.226 274.526L167.365 279.945L161.947 284.159Z" fill="#78A9EF"/>
<path d="M238.405 204.16C236.849 203.097 235.218 202.035 233.588 201.079L237.441 204.691L238.405 204.16Z" fill="#78A9EF"/>
<path d="M220.946 217.935L216.731 211.84L222.225 207.099L226.364 213.279L220.946 217.935Z" fill="#78A9EF"/>
<path d="M207.259 219.14L211.915 224.633L205.82 228.772L201.079 223.354L207.259 219.14Z" fill="#78A9EF"/>
<path d="M191.456 240.813L187.834 234.717L192.575 229.976L196.262 236.072L191.456 240.813Z" fill="#78A9EF"/>
<path d="M175.718 252.853L170.977 247.36L177.157 243.221L181.814 248.639L175.718 252.853Z" fill="#78A9EF"/>
<path d="M160.065 264.894L155.324 258.762L161.504 254.057L166.161 260.19L160.065 264.894Z" fill="#78A9EF"/>
<path d="M146.369 266.098L150.508 271.591L145.09 275.73L140.875 270.312L146.369 266.098Z" fill="#78A9EF"/>
<path d="M219.215 201.079L223.956 197.044L222.046 194.379C221.124 193.803 220.203 193.226 219.281 192.65L215.527 195.82L219.215 201.079Z" fill="#78A9EF"/>
<path d="M204.013 213.119L199.875 207.024L205.293 202.283L209.507 208.463L204.013 213.119Z" fill="#78A9EF"/>
<path d="M189.64 223.956L185.426 218.537L190.919 214.323L195.058 219.817L189.64 223.956Z" fill="#78A9EF"/>
<path d="M173.46 237.201L169.773 231.105L174.58 226.364L178.201 232.46L173.46 237.201Z" fill="#78A9EF"/>
<path d="M158.259 248.037L154.12 242.544L159.538 238.405L163.753 243.823L158.259 248.037Z" fill="#78A9EF"/>
<path d="M143.293 260.078L139.671 253.898L144.412 249.241L148.1 255.337L143.293 260.078Z" fill="#78A9EF"/>
<path d="M204.568 195.058L210.711 191.221L206.615 186.904C206.189 186.835 205.847 186.698 205.506 186.63L199.875 190.125L204.568 195.058Z" fill="#78A9EF"/>
<path d="M189.64 205.895L185.426 200.401L190.844 196.262L195.058 201.68L189.64 205.895Z" fill="#78A9EF"/>
<path d="M174.58 209.507L178.201 214.925L173.46 219.14L169.773 213.646L174.58 209.507Z" fill="#78A9EF"/>
<path d="M160.216 221.548L164.957 226.289L158.861 229.976L154.12 225.169L160.216 221.548Z" fill="#78A9EF"/>
<path d="M145.09 231.18L149.304 237.36L143.81 242.017L139.671 235.921L145.09 231.18Z" fill="#78A9EF"/>
<path d="M130.199 244.425L134.855 249.918L128.76 254.057L124.019 248.639L130.199 244.425Z" fill="#78A9EF"/>
<path d="M187.232 190.242L192.65 185.615L190.242 182.227C188.812 182.061 187.307 181.896 185.877 181.813L183.018 184.21L187.232 190.242Z" fill="#78A9EF"/>
<path d="M171.579 202.283L167.365 196.864L172.858 192.65L176.997 198.068L171.579 202.283Z" fill="#78A9EF"/>
<path d="M157.13 214.323L152.916 208.143L158.41 203.487L162.549 209.582L157.13 214.323Z" fill="#78A9EF"/>
<path d="M141.402 225.16L137.263 219.666L142.681 215.527L146.896 220.946L141.402 225.16Z" fill="#78A9EF"/>
<path d="M125.749 237.201L121.61 231.105L127.029 226.364L131.243 232.544L125.749 237.201Z" fill="#78A9EF"/>
<path d="M174.589 181.813C173.362 181.899 172.204 182.071 170.977 182.33L172.136 184.222L174.589 181.813Z" fill="#78A9EF"/>
<path d="M157.055 196.262L152.916 191.521L158.334 187.834L162.549 192.641L157.055 196.262Z" fill="#78A9EF"/>
<path d="M141.402 207.099L137.263 202.358L142.681 198.67L146.896 203.477L141.402 207.099Z" fill="#78A9EF"/>
<path d="M126.502 220.344L122.814 214.925L127.621 210.711L131.243 216.129L126.502 220.344Z" fill="#78A9EF"/>
<path d="M116.794 226.326L113.083 221.548L112.088 222.278C111.227 223.804 110.365 225.33 109.57 226.923L111.956 229.976L116.794 226.326Z" fill="#78A9EF"/>
<path d="M79.5316 326.301L78.2642 337.138L83.0804 335.414L79.5316 326.301Z" fill="#A1C3FC"/>
<path d="M68.8575 297.404L63.8154 343.158L71.6418 340.154L74.652 313.117L68.8575 297.404Z" fill="#A1C3FC"/>
<path d="M57.6346 267.302L48.1626 347.974L56.591 344.992L63.8154 282.825L57.6346 267.302Z" fill="#A1C3FC"/>
<path d="M42.2532 269.1L32.5098 353.995L40.8273 350.916L50.5707 266.098L42.2532 269.1Z" fill="#A1C3FC"/>
<path d="M27.7094 276.324L19.2651 361.219L26.4737 358.14L34.918 273.322L27.7094 276.324Z" fill="#A1C3FC"/>
<path d="M12.5024 281.207L4.81641 341.959L11.5417 357.607L21.6733 278.139L12.5024 281.207Z" fill="#A1C3FC"/>
<path d="M185.312 208.374C193.828 230.146 163.782 305.923 156.289 328.238C146.546 357.254 127.644 383.125 118.516 412.649C116.375 419.576 116.794 429.249 115.59 436.473C112.74 436.948 109.57 437.075 103.549 437.075C101.141 437.075 98.131 437.075 96.325 436.473C83.0803 435.871 91.0974 416.171 91.6214 404.13C92.8478 375.914 104.831 347.523 98.2977 320.239C93.9355 302.017 86.8432 283.493 84.9497 265.03C83.1039 247.029 81.6525 211.292 94.5094 196.969C124.426 163.64 172.321 145.183 185.312 208.374Z" fill="#1D72D8"/>
<path d="M205.595 35.5139C208.333 31.2936 213.011 21.5548 209.755 17.6142C205.701 17.4971 199.946 17.2186 195.851 17.8427C190.883 18.2793 199.135 30.8855 195.348 35.5571C192.012 39.6727 188.26 43.5007 186.29 48.552C193.863 45.1003 198.318 38.6472 205.595 35.5139Z" fill="#F2A19C"/>
<path d="M186.615 36.8201C185.763 36.8201 184.933 36.3812 184.474 35.5956C183.785 34.4166 184.182 32.9045 185.363 32.2155L234.661 3.49132C235.844 2.80463 237.36 3.20141 238.048 4.37812C238.738 5.5571 238.34 7.0692 237.159 7.75818L187.861 36.4824C187.468 36.7109 187.039 36.8201 186.615 36.8201Z" fill="#23286B"/>
<path d="M191.592 63.2794C190.648 57.8369 190.576 51.7976 194.749 48.3448C199.584 44.344 202.887 43.3014 206.837 38.2046C208.463 36.4379 206.658 25.1267 204.516 19.4967C203.454 17.897 201.911 17.2922 199.732 18.8873C198.331 19.9128 194.096 23.6703 193.071 25.1119C189.895 29.5788 193.141 30.8954 194.132 34.363C196.912 34.7291 198.788 33.6922 198.052 29.0706C197.811 27.5574 198.737 26.0351 200.616 26.0396C200.777 27.438 201.738 29.8892 200.491 31.4195C196.015 36.9086 184.269 43.0013 180.968 46.9646C174.042 55.2777 181.279 61.9651 182.026 71.4549C184.972 69.6984 188.717 69.1891 191.536 67.013C191.078 65.6419 192.005 65.0018 191.592 63.2794Z" fill="#FFBEB6"/>
<path d="M187.4 170.743C181.467 168.758 178.636 162.187 176.498 156.322C172.511 145.382 168.466 134.1 168.919 122.468C169.436 109.149 175.796 96.7542 177.92 83.5944C179.326 74.8856 178.838 65.8767 176.499 57.3703C181.749 57.9365 187.107 57.4885 192.189 56.0605C194.228 71.9126 204.674 85.268 210.511 100.15C214.271 109.736 216.119 120.063 215.914 130.355C215.672 142.494 212.341 154.987 204.28 164.086C200.03 168.883 193.485 172.779 187.4 170.743Z" fill="#151A4F"/>
<path d="M97.5289 436.472C92.1955 410.798 98.5286 378.713 117.963 358.991C123.129 353.749 133.061 341.061 137.999 335.628C145.524 327.346 150.028 315.971 152.958 309.424C162.929 287.148 175.14 265.751 187.267 209.264C187.604 207.695 195.89 177.711 194.191 177.601C179.001 176.61 163.131 173.628 160.819 173.5C127.926 171.683 121.986 178.169 89.3657 182.537C84.9565 183.127 79.9084 184.118 77.8088 187.813C72.3761 206.846 68.7326 226.329 66.9343 245.963C65.5251 261.353 65.2763 277.072 69.4561 292.011C72.4879 302.844 77.7826 313.025 80.8144 323.858C83.8463 334.69 79.5056 341.4 75.1444 357.228C73.0813 364.713 57.9537 383.572 71.0396 431.054C76.793 433.931 90.9065 436.472 96.8264 436.532C97.0807 436.519 97.3154 436.499 97.5289 436.472Z" fill="url(#paint0_linear)"/>
<path d="M102.16 73.7618C78.4277 105.013 62.3869 142.033 55.8265 180.688C54.2559 189.943 53.2325 199.532 55.5074 208.641C106.306 227.789 164.76 225.754 214.095 203.118C223.137 160.81 208.038 114.203 175.884 85.1742C161.04 71.7711 141.055 61.7151 121.421 65.6352C108.947 68.1261 109.841 63.6456 102.16 73.7618Z" fill="url(#paint1_linear)"/>
<path d="M189.936 160.003L239.11 141.172L213.89 75.6389L164.716 94.4693L189.936 160.003Z" fill="#A1C3FC"/>
<path d="M96.5116 14.6585C99.9376 13.0816 100.51 7.89957 98.0798 5.02089C95.6499 2.14108 91.2767 1.49986 87.6785 2.63223C84.0803 3.7646 81.1341 6.35222 78.5639 9.10697C76.1329 11.7128 73.8819 14.6256 72.8937 18.0454C71.9067 21.4653 72.4036 25.4922 74.9042 28.031C78.4659 31.6452 84.8006 30.946 88.8479 27.8832C92.8951 24.8203 95.2077 20.0532 97.3743 15.4703C98.962 19.0891 94.9262 11.0397 96.5116 14.6585Z" fill="#F99F1B"/>
<path d="M127.788 64.5076C127.762 65.1795 127.731 65.8741 127.44 66.4801C126.741 67.9388 124.877 68.3503 123.261 68.4799C114.915 69.1496 106.362 66.8985 99.4335 62.2087C100.63 55.2098 100.462 47.9813 98.9399 41.045C101.979 42.8209 105.765 42.4514 109.26 42.0261C115.757 41.236 122.255 40.4447 128.751 39.6545C128.43 47.9393 128.108 56.2228 127.788 64.5076Z" fill="#F2A19C"/>
<path d="M90.1179 31.1322C90.2934 29.5064 90.657 27.909 91.0195 26.3139C91.399 24.6449 91.7785 22.9759 92.1581 21.3058C92.5775 19.464 93.0174 17.5722 94.0899 16.0157C95.444 14.0523 97.6573 12.846 99.9106 12.0513C107.539 9.35907 116.516 10.8746 122.831 15.9214C129.146 20.9681 132.588 29.3756 131.62 37.3898C131.409 39.1327 131.003 40.8574 130.336 42.482C129.209 45.23 127.344 47.6516 125.079 49.5764C118.64 55.045 108.803 56.1228 101.327 52.1788C93.8517 48.2348 89.2095 39.5192 90.1179 31.1322Z" fill="#FFBEB6"/>
<path d="M106.787 41.1109C101.182 41.1109 96.6221 36.5621 96.6221 30.9707C96.6221 25.3794 101.182 20.8306 106.787 20.8306C112.394 20.8306 116.954 25.3794 116.954 30.9707C116.954 36.5621 112.394 41.1109 106.787 41.1109ZM106.787 22.5348C102.125 22.5348 98.3317 26.3185 98.3317 30.9696C98.3317 35.6207 102.125 39.4044 106.787 39.4044C111.451 39.4044 115.244 35.6207 115.244 30.9696C115.244 26.3185 111.451 22.5348 106.787 22.5348Z" fill="#23286B"/>
<path d="M126.185 31.8233C120.58 31.8233 116.02 27.2745 116.02 21.6831C116.02 16.0918 120.58 11.543 126.185 11.543C131.792 11.543 136.352 16.0918 136.352 21.6831C136.352 27.2745 131.792 31.8233 126.185 31.8233ZM126.185 13.2472C121.523 13.2472 117.73 17.0309 117.73 21.682C117.73 26.3331 121.523 30.1168 126.185 30.1168C130.849 30.1168 134.642 26.3331 134.642 21.682C134.642 17.0309 130.848 13.2472 126.185 13.2472Z" fill="#23286B"/>
<path d="M83.6171 52.1033C81.7046 52.1033 79.8297 51.7952 78.0779 51.1711C77.7816 51.0653 77.6266 50.7402 77.7326 50.4446C77.8397 50.149 78.1645 49.9944 78.4609 50.1001C82.4295 51.5121 87.1013 51.1858 91.2762 49.2053C95.4522 47.2237 98.6538 43.8129 100.058 39.8496C101.073 36.9835 101.299 33.8501 101.517 30.8191C101.637 29.1467 101.761 27.4186 102.016 25.7314C102.497 22.5264 103.449 19.417 104.845 16.4883C105.749 14.5919 107.19 12.1509 108.915 11.2903C109.199 11.1504 109.537 11.2641 109.68 11.5449C109.82 11.8258 109.706 12.1668 109.424 12.3078C108.305 12.866 107.043 14.5248 105.873 16.9771C104.525 19.8046 103.607 22.8061 103.142 25.9008C102.895 27.5436 102.773 29.2513 102.653 30.901C102.43 34.007 102.2 37.2188 101.133 40.2294C99.6283 44.4769 96.2136 48.123 91.7652 50.2331C89.1506 51.4735 86.3479 52.1033 83.6171 52.1033Z" fill="#F99F1B"/>
<path d="M87.1963 14.7842C90.5324 11.3758 97.217 9.19629 101.993 9.22016C106.768 9.24518 112.616 10.4719 115.796 11.9931C107.175 13.1687 99.4737 16.8057 96.5366 24.9756C94.9044 29.5164 95.0127 36.8177 93.2336 41.304C91.4544 45.7891 85.783 49.7251 80.979 49.1703C83.7543 43.8893 83.1297 37.5681 82.8653 31.6118C82.602 25.6543 83.0203 19.0511 87.1963 14.7842Z" fill="#F99F1B"/>
<path d="M213.233 103.775C220.543 99.4138 214.997 88.6154 216.691 87.1419C220.677 83.6732 221.545 89.6682 222.495 94.3352C222.736 95.5187 223.326 98.0279 223.642 98.2076C227.524 100.407 239.472 102.441 237.404 106.567C236.89 107.594 235.043 108.393 234.758 109.471C233.577 113.939 235.269 118.989 232.024 123.111C226.331 116.062 215.379 122.644 207.324 119.961C208.223 116.363 208.47 110.791 209.704 106.742C209.893 106.123 211.131 103.824 210.939 104.455L213.233 103.775Z" fill="#FFBEB6"/>
<path d="M133.966 146.902C116.518 142.71 97.8378 137.783 86.299 124.072C81.7685 118.689 78.6525 112.254 76.2089 105.661C72.9093 96.754 70.7837 86.773 74.0639 77.8595C79.4959 63.0955 98.4248 56.9198 113.673 60.9138C128.922 64.9078 140.973 76.3952 151.322 88.2601C155.951 93.5683 160.669 100.638 157.913 107.115C175.905 97.8113 197.177 99.0892 213.586 103.665C216.233 110.441 215.347 119.391 214.048 121.186C213.714 121.648 210.427 124.056 208.309 125.051C195.214 131.211 185.833 144.003 172.147 148.711C159.928 152.912 146.532 149.922 133.966 146.902Z" fill="url(#paint2_linear)"/>
<path d="M112.591 24.221C112.447 24.221 112.303 24.1846 112.169 24.1096C111.759 23.8765 111.616 23.3558 111.85 22.9465C111.995 22.6918 112.129 22.4156 112.265 22.1359C112.974 20.6806 114.051 18.4841 117.139 19.2811C117.596 19.3993 117.871 19.8643 117.753 20.3202C117.634 20.7761 117.162 21.0467 116.711 20.9319C115.043 20.5033 114.57 21.3048 113.803 22.8806C113.649 23.1944 113.497 23.5047 113.334 23.7901C113.178 24.0664 112.888 24.221 112.591 24.221Z" fill="#23286B"/>
<path d="M232.694 4.66351C233.247 5.69356 233.909 7.01238 234.631 7.96057C235.284 8.81894 235.431 8.7837 235.431 8.7837C235.431 8.7837 237.655 7.52854 238.016 7.26705C240.323 5.59805 241.304 4.42589 243.212 2.58977C244.107 1.72799 245.065 -0.237743 243.177 0.0237482C242.172 0.162452 241.077 0.344359 240.14 0.691119C237.779 1.56427 235.645 2.92061 233.41 4.10528C233.024 4.30879 232.694 4.51116 232.694 4.66351Z" fill="#F99F1B"/>
<path d="M74.9522 255.87C75.0308 255.737 74.9841 255.564 74.8496 255.487C74.7162 255.409 74.543 255.455 74.4655 255.589C74.3869 255.722 74.4336 255.895 74.5681 255.972C74.7014 256.05 74.8735 256.007 74.9522 255.87ZM78.3953 227.303C78.5492 227.264 78.6415 227.105 78.6005 226.952C78.5686 226.809 78.4261 226.722 78.2859 226.754C78.2745 226.755 78.262 226.759 78.2506 226.764C78.1013 226.798 78.0101 226.946 78.0432 227.096C78.0853 227.248 78.2426 227.341 78.3953 227.303ZM75.7192 241.659C75.8765 241.668 76.0167 241.556 76.0452 241.403C76.0646 241.244 75.9506 241.097 75.7887 241.078C75.6292 241.058 75.4821 241.172 75.4628 241.334C75.4559 241.492 75.5631 241.63 75.7192 241.659ZM109.316 258.41C109.608 258.461 109.889 258.269 109.947 257.977C110.012 257.698 109.839 257.42 109.561 257.353C109.55 257.352 109.542 257.348 109.532 257.347C109.239 257.296 108.959 257.488 108.901 257.78C108.841 258.068 109.027 258.351 109.316 258.41ZM96.5094 255.926C96.8057 255.976 97.0849 255.779 97.1339 255.484C97.1841 255.194 96.9937 254.919 96.7054 254.863C96.417 254.804 96.1344 254.988 96.0751 255.276C96.0295 255.575 96.2199 255.856 96.5094 255.926ZM83.6838 253.425C83.9721 253.483 84.2514 253.298 84.3095 253.011C84.3106 253.005 84.3106 252.999 84.3129 252.993C84.3779 252.714 84.2046 252.436 83.9265 252.368C83.9163 252.367 83.9083 252.364 83.898 252.363C83.6017 252.315 83.3179 252.506 83.2472 252.796C83.1994 253.089 83.392 253.369 83.6838 253.425ZM93.6178 281.425C93.774 281.173 93.6965 280.845 93.4434 280.69C93.1915 280.534 92.8622 280.612 92.7072 280.864C92.5556 281.111 92.6274 281.433 92.8701 281.592C93.122 281.748 93.4537 281.674 93.6178 281.425ZM82.7298 274.231C82.8848 273.98 82.8084 273.652 82.5554 273.497C82.3035 273.341 81.9742 273.418 81.8191 273.671C81.6676 273.918 81.7394 274.239 81.9821 274.398C82.2317 274.553 82.5657 274.479 82.7298 274.231ZM103.244 232.817C103.536 232.751 103.721 232.467 103.659 232.173C103.604 231.887 103.326 231.703 103.041 231.758C103.041 231.758 103.037 231.758 103.036 231.76C102.752 231.799 102.555 232.06 102.594 232.342C102.596 232.355 102.599 232.369 102.6 232.384C102.67 232.674 102.949 232.862 103.244 232.817ZM90.4379 235.403C90.7274 235.334 90.9177 235.055 90.8722 234.761C90.8061 234.47 90.52 234.286 90.2282 234.347C89.9387 234.406 89.7507 234.689 89.8111 234.979C89.8111 234.983 89.8122 234.987 89.8122 234.987C89.868 235.275 90.145 235.459 90.4288 235.406C90.4356 235.403 90.4368 235.403 90.4379 235.403ZM77.6534 237.988C77.9349 237.938 78.1241 237.671 78.0728 237.392C78.0717 237.384 78.0694 237.376 78.0671 237.368C78.0192 237.077 77.7423 236.881 77.4505 236.929C77.4414 236.93 77.4323 236.933 77.4231 236.934C77.1302 236.995 76.9422 237.282 77.0037 237.573C77.0653 237.865 77.3548 238.052 77.6443 237.991C77.6488 237.988 77.6511 237.988 77.6534 237.988ZM86.2653 291.884C86.4306 291.68 86.4009 291.378 86.1969 291.21C85.9929 291.043 85.6897 291.074 85.521 291.278C85.3524 291.483 85.3843 291.784 85.5894 291.952C85.7946 292.115 86.0955 292.086 86.2653 291.884ZM99.8602 245.143C100.128 245.104 100.318 244.867 100.296 244.596C100.272 244.342 100.044 244.154 99.7884 244.179C99.7804 244.18 99.7747 244.18 99.7679 244.183C99.5035 244.204 99.3074 244.437 99.3325 244.7C99.3325 244.703 99.3336 244.706 99.3336 244.709C99.3678 244.967 99.5969 245.158 99.8602 245.143ZM88.2884 246.342C88.5505 246.31 88.7351 246.073 88.7066 245.816C88.6827 245.562 88.4548 245.374 88.1995 245.399C88.1915 245.4 88.1858 245.4 88.1789 245.403C87.9145 245.424 87.7185 245.657 87.7401 245.92C87.7401 245.923 87.7413 245.926 87.7413 245.929C87.7812 246.188 88.0239 246.373 88.2884 246.342ZM76.6789 247.56C76.9433 247.539 77.1393 247.306 77.1177 247.043L77.1165 247.034C77.1006 246.785 76.8829 246.597 76.6333 246.613C76.6185 246.613 76.6014 246.617 76.5866 246.619C76.3221 246.641 76.1261 246.874 76.1478 247.136C76.1478 247.14 76.1489 247.142 76.1489 247.145C76.1877 247.4 76.4202 247.583 76.6789 247.56ZM91.5366 269.241C91.7942 269.309 92.0564 269.16 92.1293 268.904C92.2057 268.651 92.0621 268.388 91.8113 268.313C91.556 268.241 91.287 268.381 91.1993 268.63C91.1263 268.89 91.2768 269.162 91.5366 269.241ZM80.3603 265.923C80.603 266.002 80.8652 265.874 80.9461 265.634C80.9495 265.625 80.9507 265.616 80.9552 265.607C81.0316 265.354 80.888 265.091 80.6372 265.015C80.3819 264.944 80.1129 265.084 80.0252 265.333C79.9557 265.586 80.105 265.85 80.3603 265.923ZM87.6125 224.905C87.837 224.79 87.9248 224.516 87.8108 224.293C87.8062 224.284 87.8017 224.275 87.7971 224.268C87.6774 224.033 87.388 223.94 87.152 224.058C87.1475 224.061 87.1418 224.064 87.1372 224.066C86.9104 224.202 86.8295 224.49 86.9548 224.724C87.0779 224.954 87.3652 225.039 87.5954 224.918C87.6011 224.914 87.6056 224.908 87.6125 224.905ZM77.3627 230.458C77.5975 230.329 77.6876 230.038 77.5645 229.799C77.43 229.568 77.1314 229.486 76.8989 229.62C76.6766 229.747 76.5911 230.026 76.704 230.255C76.8191 230.49 77.1051 230.586 77.3388 230.47C77.3468 230.468 77.3559 230.462 77.3627 230.458ZM98.5164 293.624C98.8162 293.695 99.1194 293.523 99.206 293.227C99.2903 292.933 99.1228 292.626 98.8299 292.54C98.5301 292.465 98.2247 292.64 98.1403 292.937C98.056 293.23 98.2235 293.537 98.5164 293.624ZM85.5769 289.929C85.8721 290.015 86.1798 289.846 86.2653 289.554C86.3508 289.261 86.1821 288.952 85.8892 288.867C85.594 288.78 85.2863 288.95 85.2008 289.242C85.1142 289.535 85.284 289.842 85.5769 289.929ZM92.4598 237.434C92.7277 237.276 92.8257 236.935 92.6798 236.66C92.5214 236.395 92.1738 236.308 91.9082 236.469C91.6517 236.623 91.5617 236.951 91.703 237.213C91.8569 237.477 92.1886 237.575 92.4598 237.434ZM80.6988 243.954C80.9621 243.802 81.0601 243.47 80.9187 243.199C80.7706 242.93 80.4321 242.832 80.162 242.98C79.8918 243.128 79.7938 243.465 79.942 243.735C80.0936 243.998 80.4298 244.094 80.6988 243.954ZM94.916 266.588C95.2169 266.538 95.43 266.266 95.4095 265.964C95.3639 265.662 95.0858 265.453 94.7838 265.491C94.4829 265.518 94.2606 265.784 94.2903 266.085C94.2903 266.085 94.2914 266.093 94.2914 266.097C94.3267 266.405 94.6048 266.623 94.916 266.588C94.9137 266.588 94.916 266.588 94.916 266.588ZM81.5353 268.122C81.8442 268.085 82.0642 267.806 82.0289 267.499V267.497C81.9935 267.201 81.7211 266.988 81.4237 267.026C81.1205 267.061 80.9005 267.333 80.9358 267.634C80.9655 267.932 81.2345 268.149 81.5353 268.122ZM98.2156 275.189C98.5176 275.158 98.7387 274.888 98.7079 274.584C98.6772 274.279 98.407 274.062 98.1016 274.093C97.8075 274.123 97.5876 274.38 97.6081 274.675C97.6354 274.985 97.9067 275.213 98.2156 275.189ZM84.8452 276.164C85.1529 276.137 85.3831 275.866 85.3569 275.559C85.3284 275.261 85.0686 275.037 84.77 275.048C84.4611 275.079 84.2297 275.344 84.2388 275.653C84.2707 275.957 84.5386 276.181 84.8452 276.164ZM84.5124 250.793C84.7848 250.647 84.8908 250.312 84.7517 250.038C84.6138 249.769 84.2833 249.661 84.0143 249.799C83.7419 249.922 83.6199 250.241 83.743 250.512C83.7465 250.52 83.7487 250.527 83.7556 250.532C83.8866 250.811 84.2172 250.93 84.4964 250.798C84.5021 250.798 84.5078 250.796 84.5124 250.793Z" fill="white"/>
<path d="M243.178 0.0237482C242.175 0.162452 241.079 0.344359 240.142 0.691119C239.958 0.759334 239.783 0.846877 239.602 0.919639L241.427 4.34858C241.973 3.81082 242.534 3.2435 243.213 2.58977C244.108 1.72799 245.066 -0.237743 243.178 0.0237482Z" fill="#23286B"/>
<defs>
<linearGradient id="paint0_linear" x1="47.1187" y1="351.206" x2="163.889" y2="220.364" gradientUnits="userSpaceOnUse">
<stop stop-color="#428DFC"/>
<stop offset="1" stop-color="#1D72D8"/>
</linearGradient>
<linearGradient id="paint1_linear" x1="135.434" y1="223.107" x2="135.434" y2="97.1211" gradientUnits="userSpaceOnUse">
<stop stop-color="#23286B"/>
<stop offset="1" stop-color="#151A4F"/>
</linearGradient>
<linearGradient id="paint2_linear" x1="92.9822" y1="123.706" x2="191.95" y2="76.5797" gradientUnits="userSpaceOnUse">
<stop stop-color="#23286B"/>
<stop offset="1" stop-color="#151A4F"/>
</linearGradient>
</defs>
</svg>
