<svg width="46" height="46" viewBox="0 0 46 46" fill="none" xmlns="http://www.w3.org/2000/svg">
<path d="M10.0304 44.8949C7.49569 44.8949 5.43262 42.9348 5.43262 40.5264V5.47491C5.43262 3.06654 7.49483 1.10645 10.0304 1.10645H28.8664L40.5672 12.2933V40.5264C40.5672 42.9348 38.505 44.8949 35.9694 44.8949H10.0304V44.8949Z" fill="#EDF7F5"/>
<path d="M28.6224 1.71154L34.3036 7.14269L39.9615 12.5513V40.5258C39.9615 42.6001 38.171 44.2885 35.9695 44.2885H10.0305C7.82979 44.2885 6.03844 42.6001 6.03844 40.5258V5.47423C6.03844 3.3999 7.82892 1.71154 10.0305 1.71154H10.7859H17.9357H28.6224V1.71154ZM29.1087 0.5H17.9357H10.7859H10.0305C7.16777 0.5 4.8269 2.73788 4.8269 5.47423V40.5258C4.8269 43.2613 7.16777 45.5 10.0305 45.5H35.9704C38.8322 45.5 41.1731 43.2621 41.1731 40.5258V12.0338C36.4809 7.54856 33.8008 4.98529 29.1087 0.5Z" fill="#472B29"/>
<path d="M28.625 1.5459V8.46378C28.625 10.9855 30.6985 13.0486 33.2332 13.0486H40.3077" fill="#85CFCC"/>
<path d="M40.308 13.4813H33.2335C30.4539 13.4813 28.1926 11.2304 28.1926 8.46378V1.5459H29.058V8.46378C29.058 10.7536 30.9316 12.6159 33.2335 12.6159H40.308V13.4813Z" fill="#472B29"/>
<path d="M19.9711 4.61043H14.9952C14.8757 4.61043 14.7788 4.5135 14.7788 4.39408C14.7788 4.27466 14.8757 4.17773 14.9952 4.17773H19.9711C20.0905 4.17773 20.1875 4.27466 20.1875 4.39408C20.1875 4.5135 20.0905 4.61043 19.9711 4.61043Z" fill="#472B29"/>
<path d="M34.8498 41.822H11.1504C9.69132 41.822 8.50488 40.6442 8.50488 39.1955V6.80418C8.50488 5.35552 9.69132 4.17773 11.1504 4.17773H13.0482C13.1676 4.17773 13.2645 4.27466 13.2645 4.39408C13.2645 4.5135 13.1676 4.61043 13.0482 4.61043H11.1504C9.93017 4.61043 8.93758 5.59523 8.93758 6.80418V39.1955C8.93758 40.4045 9.93017 41.3893 11.1504 41.3893H34.8507C36.0708 41.3893 37.0634 40.4045 37.0634 39.1955V29.4902C37.0634 29.3708 37.1604 29.2739 37.2798 29.2739C37.3992 29.2739 37.4961 29.3708 37.4961 29.4902V39.1955C37.4953 40.6442 36.3088 41.822 34.8498 41.822Z" fill="#472B29"/>
<path d="M37.2788 27.1112C37.1594 27.1112 37.0625 27.0143 37.0625 26.8948V22.5679C37.0625 22.4485 37.1594 22.3516 37.2788 22.3516C37.3983 22.3516 37.4952 22.4485 37.4952 22.5679V26.8948C37.4952 27.0143 37.3983 27.1112 37.2788 27.1112Z" fill="#472B29"/>
<path d="M37.2788 21.5575C37.1594 21.5575 37.0625 21.4606 37.0625 21.3412V19.3941C37.0625 19.2747 37.1594 19.1777 37.2788 19.1777C37.3983 19.1777 37.4952 19.2747 37.4952 19.3941V21.3412C37.4952 21.4606 37.3983 21.5575 37.2788 21.5575Z" fill="#472B29"/>
<path d="M24.2979 12.399H13.0479C12.9285 12.399 12.8315 12.3021 12.8315 12.1827C12.8315 12.0632 12.9285 11.9663 13.0479 11.9663H24.2979C24.4173 11.9663 24.5142 12.0632 24.5142 12.1827C24.5142 12.3021 24.4173 12.399 24.2979 12.399Z" fill="#472B29"/>
<path d="M19.971 14.9952H13.0479C12.9285 14.9952 12.8315 14.8983 12.8315 14.7788C12.8315 14.6594 12.9285 14.5625 13.0479 14.5625H19.971C20.0904 14.5625 20.1873 14.6594 20.1873 14.7788C20.1873 14.8983 20.0904 14.9952 19.971 14.9952Z" fill="#472B29"/>
<path d="M23.4325 17.5919H13.0479C12.9285 17.5919 12.8315 17.4949 12.8315 17.3755C12.8315 17.2561 12.9285 17.1592 13.0479 17.1592H23.4325C23.5519 17.1592 23.6488 17.2561 23.6488 17.3755C23.6488 17.4949 23.5519 17.5919 23.4325 17.5919Z" fill="#472B29"/>
<path d="M26.0291 14.9952H21.7022C21.5828 14.9952 21.4858 14.8983 21.4858 14.7788C21.4858 14.6594 21.5828 14.5625 21.7022 14.5625H26.0291C26.1485 14.5625 26.2455 14.6594 26.2455 14.7788C26.2455 14.8983 26.1485 14.9952 26.0291 14.9952Z" fill="#472B29"/>
<path d="M13.7688 39.4839V35.9399H15.2523V38.0004H29.016V35.9399H30.4996V39.4839H13.7688Z" fill="#67BA8C"/>
<path d="M30.2115 36.2283V37.7118V39.1953H28.728H15.5412H14.0576V37.7118V36.2283H14.9642V37.7118V38.2887H15.5412H28.728H29.3049V37.7118V36.2283H30.2115ZM30.7884 35.6514H28.728V37.7118H15.5412V35.6514H13.4807V37.7118V39.7722H15.5412H28.728H30.7884V37.7118V35.6514Z" fill="#472B29"/>
<path d="M17.1548 30.2616L18.4953 28.9211L21.1867 31.6129V20.6934H23.0823V31.6178L25.779 28.9211L27.1191 30.2616L22.1378 35.2442L17.1548 30.2616Z" fill="#67BA8C"/>
<path d="M22.7938 20.9812V30.9204V32.3132L23.7787 31.3283L25.7786 29.3285L26.7111 30.261L23.4775 33.4947L23.0699 33.9031L22.1369 34.836L21.2052 33.9043L21.2056 33.9039L20.7964 33.4947L17.5628 30.261L18.4953 29.3285L20.4906 31.3238L21.4755 32.3087V30.9158V20.9812H22.7938ZM23.3707 20.4043H20.8982V30.9154L18.4953 28.5121L16.7468 30.2606L20.3884 33.9022L20.388 33.9026L22.1361 35.6515L22.1369 35.6511L22.1373 35.6515L23.8858 33.9031L23.8854 33.9026L27.527 30.261L25.7786 28.5125L23.3707 30.9204V20.4043Z" fill="#472B29"/>
</svg>
