<svg width="46" height="46" viewBox="0 0 46 46" fill="none" xmlns="http://www.w3.org/2000/svg">
<path d="M5.1875 41.5625C2.96469 41.5625 1.15625 39.7541 1.15625 37.5313V8.46875C1.15625 6.24594 2.96469 4.4375 5.1875 4.4375H40.8125C43.0353 4.4375 44.8438 6.24594 44.8438 8.46875V37.5313C44.8438 39.7541 43.0353 41.5625 40.8125 41.5625H5.1875Z" fill="#FFFEF4"/>
<path d="M40.8125 5.09375C42.6734 5.09375 44.1875 6.60781 44.1875 8.46875V37.5312C44.1875 39.3922 42.6734 40.9062 40.8125 40.9062H5.1875C3.32656 40.9062 1.8125 39.3922 1.8125 37.5312V8.46875C1.8125 6.60781 3.32656 5.09375 5.1875 5.09375H40.8125ZM40.8125 3.78125H5.1875C2.59906 3.78125 0.5 5.88031 0.5 8.46875V37.5312C0.5 40.1197 2.59906 42.2188 5.1875 42.2188H40.8125C43.4009 42.2188 45.5 40.1197 45.5 37.5312V8.46875C45.5 5.88031 43.4009 3.78125 40.8125 3.78125Z" fill="#472B29"/>
<path d="M30.0312 16.9062H14.0938C13.835 16.9062 13.625 16.6962 13.625 16.4375C13.625 16.1788 13.835 15.9688 14.0938 15.9688H30.0312C30.29 15.9688 30.5 16.1788 30.5 16.4375C30.5 16.6962 30.29 16.9062 30.0312 16.9062ZM17.8438 8.23438H1.90625C1.77688 8.23438 1.67188 8.12937 1.67188 8C1.67188 7.87063 1.77688 7.76562 1.90625 7.76562H17.8438C17.9731 7.76562 18.0781 7.87063 18.0781 8C18.0781 8.12937 17.9731 8.23438 17.8438 8.23438ZM23.4688 8.23438H19.7188C19.5894 8.23438 19.4844 8.12937 19.4844 8C19.4844 7.87063 19.5894 7.76562 19.7188 7.76562H23.4688C23.5981 7.76562 23.7031 7.87063 23.7031 8C23.7031 8.12937 23.5981 8.23438 23.4688 8.23438ZM34.7188 8.23438H25.3438C25.2144 8.23438 25.1094 8.12937 25.1094 8C25.1094 7.87063 25.2144 7.76562 25.3438 7.76562H34.7188C34.8481 7.76562 34.9531 7.87063 34.9531 8C34.9531 8.12937 34.8481 8.23438 34.7188 8.23438ZM44.0938 8.23438H37.5312C37.4019 8.23438 37.2969 8.12937 37.2969 8C37.2969 7.87063 37.4019 7.76562 37.5312 7.76562H44.0938C44.2231 7.76562 44.3281 7.87063 44.3281 8C44.3281 8.12937 44.2231 8.23438 44.0938 8.23438ZM17.8438 38.2344H1.90625C1.77688 38.2344 1.67188 38.1294 1.67188 38C1.67188 37.8706 1.77688 37.7656 1.90625 37.7656H17.8438C17.9731 37.7656 18.0781 37.8706 18.0781 38C18.0781 38.1294 17.9731 38.2344 17.8438 38.2344ZM23.4688 38.2344H19.7188C19.5894 38.2344 19.4844 38.1294 19.4844 38C19.4844 37.8706 19.5894 37.7656 19.7188 37.7656H23.4688C23.5981 37.7656 23.7031 37.8706 23.7031 38C23.7031 38.1294 23.5981 38.2344 23.4688 38.2344Z" fill="#472B29"/>
<path d="M34.7188 38.2344H25.3438C25.2144 38.2344 25.1094 38.1294 25.1094 38C25.1094 37.8706 25.2144 37.7656 25.3438 37.7656H34.7188C34.8481 37.7656 34.9531 37.8706 34.9531 38C34.9531 38.1294 34.8481 38.2344 34.7188 38.2344Z" fill="#472B29"/>
<path d="M44.0938 38.2344H37.5312C37.4019 38.2344 37.2969 38.1294 37.2969 38C37.2969 37.8706 37.4019 37.7656 37.5312 37.7656H44.0938C44.2231 37.7656 44.3281 37.8706 44.3281 38C44.3281 38.1294 44.2231 38.2344 44.0938 38.2344Z" fill="#472B29"/>
<path d="M39.4062 16.9062H33.7812C33.5225 16.9062 33.3125 16.6962 33.3125 16.4375C33.3125 16.1788 33.5225 15.9688 33.7812 15.9688H39.4062C39.665 15.9688 39.875 16.1788 39.875 16.4375C39.875 16.6962 39.665 16.9062 39.4062 16.9062Z" fill="#472B29"/>
<path d="M39.4062 25.3438H21.5938C21.335 25.3438 21.125 25.1337 21.125 24.875C21.125 24.6163 21.335 24.4062 21.5938 24.4062H39.4062C39.665 24.4062 39.875 24.6163 39.875 24.875C39.875 25.1337 39.665 25.3438 39.4062 25.3438Z" fill="#472B29"/>
<path d="M18.7812 25.3438H14.0938C13.835 25.3438 13.625 25.1337 13.625 24.875C13.625 24.6163 13.835 24.4062 14.0938 24.4062H18.7812C19.04 24.4062 19.25 24.6163 19.25 24.875C19.25 25.1337 19.04 25.3438 18.7812 25.3438Z" fill="#472B29"/>
<path d="M32.8438 32.8438H14.0938C13.835 32.8438 13.625 32.6337 13.625 32.375C13.625 32.1163 13.835 31.9062 14.0938 31.9062H32.8438C33.1025 31.9062 33.3125 32.1163 33.3125 32.375C33.3125 32.6337 33.1025 32.8438 32.8438 32.8438Z" fill="#472B29"/>
<path d="M8.37499 18.0313C8.25124 18.0313 8.13124 17.9816 8.04312 17.8944L5.79312 15.6444C5.6103 15.4616 5.6103 15.1644 5.79312 14.9816C5.97593 14.7988 6.27312 14.7988 6.45593 14.9816L8.32437 16.85L11.3741 12.7822C11.5306 12.575 11.825 12.5338 12.0303 12.6875C12.2375 12.8431 12.2797 13.1366 12.125 13.3438L8.74999 17.8438C8.66843 17.9525 8.5428 18.02 8.4078 18.0303C8.39749 18.0313 8.38624 18.0313 8.37499 18.0313Z" fill="#472B29"/>
<path d="M8.37499 26.4688C8.25124 26.4688 8.13124 26.4191 8.04312 26.3319L5.79312 24.0819C5.6103 23.8991 5.6103 23.6019 5.79312 23.4191C5.97593 23.2363 6.27312 23.2363 6.45593 23.4191L8.32437 25.2875L11.3741 21.2197C11.5306 21.0125 11.825 20.9713 12.0303 21.125C12.2375 21.2806 12.2797 21.5741 12.125 21.7813L8.74999 26.2813C8.66843 26.39 8.5428 26.4575 8.4078 26.4678C8.39749 26.4688 8.38624 26.4688 8.37499 26.4688Z" fill="#472B29"/>
<path d="M8.37499 33.9688C8.25124 33.9688 8.13124 33.9191 8.04312 33.8319L5.79312 31.5819C5.6103 31.3991 5.6103 31.1019 5.79312 30.9191C5.97593 30.7363 6.27312 30.7363 6.45593 30.9191L8.32437 32.7875L11.3741 28.7197C11.5306 28.5125 11.825 28.4713 12.0303 28.625C12.2375 28.7806 12.2797 29.0741 12.125 29.2813L8.74999 33.7813C8.66843 33.89 8.5428 33.9575 8.4078 33.9678C8.39749 33.9688 8.38624 33.9688 8.37499 33.9688Z" fill="#472B29"/>
</svg>
